<?xml version="1.0" encoding="utf-8"?>
<!-- Generator: Avocode 2.6.0 - http://avocode.com -->
<svg height="40" width="55" xmlns:xlink="http://www.w3.org/1999/xlink" xmlns="http://www.w3.org/2000/svg" viewBox="0 0 55 40">
    <path fill="#b4b4b4" fill-rule="evenodd" d="M 54.12 20.4 C 53.72 20.24 53.25 20.48 53.17 20.96 L 48.78 35.76 C 47.91 32.16 45.83 26 41.53 19.76 C 35.47 11.04 23.51 0.64 1.2 0.64 C 0.72 0.64 0.4 0.96 0.4 1.44 C 0.4 1.92 0.72 2.24 1.2 2.24 C 18.49 2.24 31.64 8.4 40.17 20.64 C 44.88 27.36 46.79 34.08 47.51 37.28 L 33.72 27.52 C 33.32 27.28 32.84 27.36 32.6 27.68 C 32.36 28.08 32.44 28.56 32.76 28.8 L 47.83 39.44 C 47.91 39.52 47.99 39.52 47.99 39.52 C 48.14 39.68 48.3 39.76 48.46 39.76 L 48.54 39.76 C 48.86 39.76 49.18 39.52 49.34 39.2 L 54.68 21.36 C 54.76 20.96 54.52 20.48 54.12 20.4 L 54.12 20.4 Z M 54.12 20.4" />
</svg>