<svg id="SvgjsSvg1027" xmlns="http://www.w3.org/2000/svg" version="1.1" xmlns:xlink="http://www.w3.org/1999/xlink" xmlns:svgjs="http://svgjs.com/svgjs" width="81" height="80"><path id="SvgjsPath1029" d="M432.2 3224.8L432.2 3217.19C439.36 3208.06 443 3198.81 443 3189.7000000000003C443 3178.2900000000004 433.71 3169.0000000000005 422.3 3169.0000000000005C412.99 3169.0000000000005 405.09000000000003 3175.1800000000003 402.5 3183.6600000000003C399.91 3175.1800000000003 392.01 3169.0000000000005 382.7 3169.0000000000005C372.43 3169.0000000000005 363.88 3176.5200000000004 362.27 3186.3500000000004L362.26 3186.3600000000006C361.96999999999997 3186.6500000000005 361.94 3187.0900000000006 362.13 3187.4300000000007C362.05 3188.1800000000007 362 3188.9300000000007 362 3189.7000000000007C362 3190.480000000001 362.03 3191.2600000000007 362.08 3192.0300000000007C361.96 3192.3000000000006 361.99 3192.6100000000006 362.15 3192.8600000000006C363.15999999999997 3204.0500000000006 369.39 3213.9200000000005 376.65 3221.8100000000004C376.65999999999997 3221.8200000000006 376.65999999999997 3221.8300000000004 376.65999999999997 3221.8400000000006C376.66999999999996 3221.8400000000006 376.66999999999996 3221.8400000000006 376.67999999999995 3221.8400000000006C387.71999999999997 3233.850000000001 401.11999999999995 3241.2700000000004 402.06999999999994 3241.7900000000004C402.19999999999993 3241.8600000000006 402.3499999999999 3241.9000000000005 402.49999999999994 3241.9000000000005C402.6499999999999 3241.9000000000005 402.79999999999995 3241.8600000000006 402.92999999999995 3241.7900000000004C403.03999999999996 3241.7300000000005 405.42999999999995 3240.4200000000005 409.03999999999996 3238.0000000000005C409.21 3238.1800000000003 409.43999999999994 3238.3000000000006 409.7 3238.3000000000006L418.7 3238.3000000000006L418.7 3247.3000000000006C418.7 3247.8000000000006 419.09999999999997 3248.2000000000007 419.59999999999997 3248.2000000000007L431.29999999999995 3248.2000000000007C431.79999999999995 3248.2000000000007 432.19999999999993 3247.8000000000006 432.19999999999993 3247.3000000000006L432.19999999999993 3238.3000000000006L441.19999999999993 3238.3000000000006C441.69999999999993 3238.3000000000006 442.0999999999999 3237.9000000000005 442.0999999999999 3237.4000000000005L442.0999999999999 3225.7000000000007C442.0999999999999 3225.2000000000007 441.69999999999993 3224.8000000000006 441.19999999999993 3224.8000000000006ZM397.27 3236.7L399.53999999999996 3234.4399999999996C399.89 3234.0799999999995 399.89 3233.5199999999995 399.53999999999996 3233.1599999999994C399.17999999999995 3232.8099999999995 398.61999999999995 3232.8099999999995 398.26 3233.1599999999994L395.76 3235.6699999999996C394.59999999999997 3234.8599999999997 393.33 3233.9599999999996 392 3232.97L395.04 3229.9399999999996C395.39000000000004 3229.5799999999995 395.39000000000004 3229.0199999999995 395.04 3228.6599999999994C394.68 3228.3099999999995 394.12 3228.3099999999995 393.76000000000005 3228.6599999999994L390.56000000000006 3231.8699999999994C389.56000000000006 3231.0899999999992 388.52000000000004 3230.2699999999995 387.4700000000001 3229.3999999999996L390.5400000000001 3226.3399999999997C390.8900000000001 3225.99 390.8900000000001 3225.4199999999996 390.5400000000001 3225.0599999999995C390.18000000000006 3224.7099999999996 389.62000000000006 3224.7099999999996 389.2600000000001 3225.0599999999995L386.0900000000001 3228.2299999999996C384.9700000000001 3227.2699999999995 383.8300000000001 3226.2499999999995 382.6900000000001 3225.1799999999994L386.04000000000013 3221.8399999999992C386.39000000000016 3221.479999999999 386.39000000000016 3220.919999999999 386.04000000000013 3220.559999999999C385.6800000000001 3220.209999999999 385.1200000000001 3220.209999999999 384.76000000000016 3220.559999999999L381.39000000000016 3223.939999999999C380.46000000000015 3223.039999999999 379.54000000000013 3222.099999999999 378.64000000000016 3221.139999999999L382.44000000000017 3217.339999999999C382.7900000000002 3216.9799999999987 382.7900000000002 3216.4199999999987 382.44000000000017 3216.0599999999986C382.08000000000015 3215.7099999999987 381.52000000000015 3215.7099999999987 381.1600000000002 3216.0599999999986L377.4200000000002 3219.8099999999986C376.5500000000002 3218.839999999999 375.69000000000017 3217.839999999999 374.8600000000002 3216.819999999999L378.8400000000002 3212.839999999999C379.1900000000002 3212.4799999999987 379.1900000000002 3211.9199999999987 378.8400000000002 3211.5599999999986C378.4800000000002 3211.2099999999987 377.9100000000002 3211.2099999999987 377.56000000000023 3211.5599999999986L373.74000000000024 3215.3899999999985C372.92000000000024 3214.3199999999983 372.1400000000002 3213.2199999999984 371.3900000000002 3212.0999999999985C371.4700000000002 3212.0599999999986 371.56000000000023 3212.0099999999984 371.6400000000002 3211.9399999999987L375.6900000000002 3207.8899999999985C376.04000000000025 3207.5299999999984 376.04000000000025 3206.9699999999984 375.6900000000002 3206.6099999999983C375.3300000000002 3206.2599999999984 374.7600000000002 3206.2599999999984 374.41000000000025 3206.6099999999983L370.41000000000025 3210.6099999999983C369.80000000000024 3209.6299999999983 369.22000000000025 3208.6299999999983 368.68000000000023 3207.6099999999983C368.7700000000002 3207.5699999999983 368.86000000000024 3207.5099999999984 368.9400000000002 3207.4399999999982L373.4400000000002 3202.9399999999982C373.79000000000025 3202.579999999998 373.79000000000025 3202.019999999998 373.4400000000002 3201.659999999998C373.0800000000002 3201.309999999998 372.5100000000002 3201.309999999998 372.16000000000025 3201.659999999998L367.84000000000026 3205.989999999998C367.3200000000003 3204.929999999998 366.85000000000025 3203.849999999998 366.41000000000025 3202.759999999998L372.53000000000026 3196.639999999998C372.89000000000027 3196.289999999998 372.89000000000027 3195.719999999998 372.53000000000026 3195.359999999998C372.18000000000023 3195.009999999998 371.61000000000024 3195.009999999998 371.2600000000003 3195.359999999998L365.7300000000003 3200.889999999998C365.3400000000003 3199.729999999998 364.9800000000003 3198.549999999998 364.70000000000033 3197.349999999998C364.92000000000036 3197.349999999998 365.1400000000003 3197.269999999998 365.31000000000034 3197.1099999999983L372.51000000000033 3190.3599999999983C372.88000000000034 3190.019999999998 372.8900000000003 3189.4499999999985 372.55000000000035 3189.079999999998C372.2100000000004 3188.719999999998 371.6400000000003 3188.699999999998 371.28000000000037 3189.039999999998L364.3400000000004 3195.5499999999984C364.17000000000036 3194.5799999999986 364.03000000000037 3193.6099999999983 363.9400000000004 3192.6299999999983L373.4300000000004 3183.1399999999985C373.7900000000004 3182.7899999999986 373.7900000000004 3182.2199999999984 373.4300000000004 3181.8599999999983C373.0800000000004 3181.5099999999984 372.5100000000004 3181.5099999999984 372.1600000000004 3181.8599999999983L363.82000000000045 3190.209999999998C363.82000000000045 3190.039999999998 363.80000000000047 3189.869999999998 363.80000000000047 3189.699999999998C363.80000000000047 3188.849999999998 363.88000000000045 3188.009999999998 363.99000000000046 3187.189999999998L376.14000000000044 3175.0399999999977C376.49000000000046 3174.6799999999976 376.49000000000046 3174.1199999999976 376.14000000000044 3173.7599999999975C375.7800000000004 3173.4099999999976 375.2200000000004 3173.4099999999976 374.86000000000047 3173.7599999999975L364.7100000000005 3183.9099999999976C367.17000000000047 3176.3199999999974 374.30000000000047 3170.7999999999975 382.7000000000005 3170.7999999999975C393.1200000000005 3170.7999999999975 401.6000000000005 3179.2799999999975 401.6000000000005 3189.6999999999975C401.6000000000005 3190.1999999999975 402.00000000000045 3190.5999999999976 402.50000000000045 3190.5999999999976C403.00000000000045 3190.5999999999976 403.40000000000043 3190.1999999999975 403.40000000000043 3189.6999999999975C403.40000000000043 3179.2799999999975 411.88000000000045 3170.7999999999975 422.3000000000004 3170.7999999999975C432.7200000000004 3170.7999999999975 441.2000000000004 3179.2799999999975 441.2000000000004 3189.6999999999975C441.2000000000004 3198.0299999999975 437.9900000000004 3206.5299999999975 431.6400000000004 3214.9699999999975C431.54000000000036 3214.9199999999973 431.42000000000036 3214.8999999999974 431.3000000000004 3214.8999999999974L419.6000000000004 3214.8999999999974C419.1000000000004 3214.8999999999974 418.70000000000044 3215.2999999999975 418.70000000000044 3215.7999999999975L418.70000000000044 3224.7999999999975L409.70000000000044 3224.7999999999975C409.20000000000044 3224.7999999999975 408.80000000000047 3225.1999999999975 408.80000000000047 3225.6999999999975L408.80000000000047 3235.9999999999977C405.75000000000045 3238.069999999998 403.42000000000047 3239.439999999998 402.50000000000045 3239.9699999999975C401.69000000000045 3239.4999999999977 399.80000000000047 3238.3899999999976 397.27000000000044 3236.6999999999975ZM430.4 3237.4L430.4 3238.83L422.83 3246.4L420.5 3246.4L420.5 3244.07L437.97 3226.6000000000004L440.3 3226.6000000000004L440.3 3228.9300000000003L432.73 3236.5000000000005L431.3 3236.5000000000005C430.8 3236.5000000000005 430.40000000000003 3236.9000000000005 430.40000000000003 3237.4000000000005ZM410.6 3233.27L417.27000000000004 3226.6L419.6 3226.6C420.1 3226.6 420.5 3226.2 420.5 3225.7L420.5 3223.37L427.17 3216.7L430.40000000000003 3216.7L430.40000000000003 3217.23L411.13000000000005 3236.5L410.6000000000001 3236.5ZM430.4 3219.77L430.4 3224.43L418.33 3236.5L413.66999999999996 3236.5ZM420.5 3241.53L420.5 3237.4C420.5 3237.25 420.45 3237.11 420.39 3236.9900000000002L430.89 3226.4900000000002C431.01 3226.55 431.15 3226.6000000000004 431.3 3226.6000000000004L435.43 3226.6000000000004ZM430.4 3241.37L430.4 3246.4L425.37 3246.4ZM410.6 3226.6L414.73 3226.6L410.6 3230.73ZM420.5 3216.7L424.63 3216.7L420.5 3220.83ZM440.3 3231.47L440.3 3236.5L435.27000000000004 3236.5Z " fill="#7f8ea5" fill-opacity="1" transform="matrix(1,0,0,1,-362,-3169)"></path>
</svg>