<svg id="SvgjsSvg1000" xmlns="http://www.w3.org/2000/svg" version="1.1" xmlns:xlink="http://www.w3.org/1999/xlink" xmlns:svgjs="http://svgjs.com/svgjs" width="24" height="24" viewBox="0 0 24 24"><title>Shape</title><desc>Created with Avocode.</desc><defs id="SvgjsDefs1001"></defs><path id="SvgjsPath1007" d="M103.52 476.21L98.71 471.4C101.64 467.35999999999996 101.28999999999999 461.66999999999996 97.64 458.03C95.63 456.01 92.98 455 90.34 455C87.69 455 85.05 456.01 83.03 458.03C78.99 462.05999999999995 78.99 468.60999999999996 83.03 472.64C85.05 474.65999999999997 87.69 475.66999999999996 90.34 475.66999999999996C92.47 475.66999999999996 94.60000000000001 475.02 96.4 473.71L101.21000000000001 478.52C101.53 478.84 101.95 479 102.37 479C102.79 479 103.2 478.84 103.52000000000001 478.52C104.16000000000001 477.88 104.16000000000001 476.84999999999997 103.52000000000001 476.21ZM84.64 471.03C81.5 467.89 81.5 462.78 84.64 459.64C86.16 458.12 88.19 457.28 90.34 457.28C92.49000000000001 457.28 94.51 458.11999999999995 96.03 459.64C99.17 462.78 99.17 467.89 96.03 471.03C94.51 472.54999999999995 92.49 473.39 90.34 473.39C88.19 473.39 86.16 472.55 84.64 471.03Z " fill="#bfc6d2" fill-opacity="1" transform="matrix(1,0,0,1,-80,-455)"></path></svg>