<svg id="SvgjsSvg1068" xmlns="http://www.w3.org/2000/svg" version="1.1" xmlns:xlink="http://www.w3.org/1999/xlink" xmlns:svgjs="http://svgjs.com/svgjs" width="66" height="82">
    <path id="SvgjsPath1070" d="M243.55 3212C226.68 3212 212.77 3224.84 211.16000000000003 3241.22C210.99000000000004 3241.48 210.96000000000004 3241.7999999999997 211.09000000000003 3242.08C211.04000000000002 3242.85 211.00000000000003 3243.62 211.00000000000003 3244.4C211.00000000000003 3244.9 211.40000000000003 3245.3 211.90000000000003 3245.3C211.91000000000003 3245.3 275.21000000000004 3245.3 275.21000000000004 3245.3C275.71000000000004 3245.3 276.11 3244.9 276.11 3244.4C276.11 3244.34 276.11 3244.28 276.09000000000003 3244.2200000000003C276.00000000000006 3226.44 261.43 3212.0000000000005 243.55000000000004 3212.0000000000005ZM253.87 3215.58C253.89000000000001 3215.59 253.91 3215.59 253.92000000000002 3215.6C251.57000000000002 3218.95 247.68 3221 243.55 3221C239.41000000000003 3221 235.53 3218.95 233.17000000000002 3215.6C233.21 3215.58 233.25000000000003 3215.5699999999997 233.28000000000003 3215.56C236.49000000000004 3214.42 239.95000000000002 3213.7999999999997 243.55000000000004 3213.7999999999997C247.17000000000004 3213.7999999999997 250.65000000000003 3214.43 253.88000000000005 3215.58C253.88000000000005 3215.58 253.88000000000005 3215.58 253.87000000000006 3215.58ZM223.39 3242.34C223.75 3241.98 223.75 3241.42 223.39 3241.06C223.04 3240.71 222.47 3240.71 222.10999999999999 3241.06L219.67 3243.5L216.79999999999998 3243.5L223.39 3236.94C223.75 3236.58 223.75 3236.02 223.39 3235.66C223.04 3235.31 222.47 3235.31 222.10999999999999 3235.66L214.23999999999998 3243.5L212.82 3243.5C212.84 3242.99 212.85999999999999 3242.48 212.9 3241.98L224.3 3230.64C224.65 3230.2799999999997 224.65 3229.72 224.3 3229.3599999999997C223.94 3229.0099999999998 223.37 3229.0099999999998 223.02 3229.3599999999997L213.28 3239.0599999999995C213.51 3237.7499999999995 213.84 3236.4599999999996 214.23 3235.2099999999996C214.26999999999998 3235.1899999999996 214.32 3235.1699999999996 214.35 3235.1399999999994L225.2 3224.3399999999992C225.56 3223.979999999999 225.56 3223.4099999999994 225.2 3223.059999999999C224.85 3222.709999999999 224.28 3222.709999999999 223.92 3223.059999999999L215.89999999999998 3231.049999999999C219.12999999999997 3224.449999999999 224.65999999999997 3219.179999999999 231.45999999999998 3216.2699999999986C234.11999999999998 3220.319999999999 238.67999999999998 3222.799999999999 243.54999999999998 3222.799999999999C248.42 3222.799999999999 252.98 3220.319999999999 255.64 3216.2699999999986C266.33 3220.8499999999985 273.91999999999996 3231.279999999999 274.28 3243.4999999999986L222.21999999999997 3243.4999999999986Z " fill="#7f8ea5" fill-opacity="1" transform="matrix(1,0,0,1,-211,-3164)"></path>
    <path id="SvgjsPath1071" d="M249.65 3198.36C248.09 3200.42 245.72 3201.6 243.14000000000001 3201.6C240.55 3201.6 238.18 3200.42 236.63000000000002 3198.36C236.33 3197.96 235.76000000000002 3197.88 235.36 3198.1800000000003C234.96 3198.4800000000005 234.88000000000002 3199.0400000000004 235.18 3199.4400000000005C237.08 3201.9600000000005 239.98000000000002 3203.4000000000005 243.14000000000001 3203.4000000000005C246.29000000000002 3203.4000000000005 249.19000000000003 3201.9600000000005 251.09 3199.4400000000005C251.39000000000001 3199.0400000000004 251.31 3198.4800000000005 250.91 3198.1800000000003C250.51 3197.88 249.94 3197.9600000000005 249.65 3198.36Z " fill="#7f8ea5" fill-opacity="1" transform="matrix(1,0,0,1,-211,-3164)"></path>
    <path id="SvgjsPath1072" d="M248.75 3235L237.9 3235C237.4 3235 237 3235.4 237 3235.9C237 3236.4 237.4 3236.8 237.9 3236.8L248.75 3236.8C249.25 3236.8 249.66 3236.4 249.66 3235.9C249.66 3235.4 249.25 3235 248.75 3235Z " fill="#7f8ea5" fill-opacity="1" transform="matrix(1,0,0,1,-211,-3164)"></path>
    <path id="SvgjsPath1073" d="M243.37 3209C251.84 3209 258.74 3202.14 258.74 3193.7C258.74 3186.43 253.62 3180.24 246.61 3178.75C247.42000000000002 3177.31 247.89000000000001 3175.66 247.89000000000001 3173.9C247.89000000000001 3168.44 243.43 3164 237.95000000000002 3164C232.46 3164 228.00000000000003 3168.44 228.00000000000003 3173.9C228.00000000000003 3177.55 230.00000000000003 3180.7400000000002 232.97000000000003 3182.46C229.80000000000004 3185.36 228.00000000000003 3189.38 228.00000000000003 3193.7C228.00000000000003 3202.14 234.89000000000001 3209 243.37000000000003 3209ZM229.81 3193.7C229.81 3192.7799999999997 229.91 3191.8799999999997 230.09 3191L256.65 3191C256.83 3191.87 256.92999999999995 3192.78 256.92999999999995 3193.7C256.92999999999995 3201.14 250.84999999999994 3207.2 243.36999999999995 3207.2C235.88999999999996 3207.2 229.80999999999995 3201.14 229.80999999999995 3193.7ZM237.95 3165.8C242.42999999999998 3165.8 246.07999999999998 3169.4300000000003 246.07999999999998 3173.9C246.07999999999998 3178.37 242.42999999999998 3182 237.95 3182C233.45999999999998 3182 229.81 3178.37 229.81 3173.9C229.81 3169.4300000000003 233.46 3165.8 237.95 3165.8ZM245.46 3180.37C249.06 3180.92 252.14000000000001 3182.87 254.20000000000002 3185.6L238.85000000000002 3185.6L238.85000000000002 3183.75C241.46000000000004 3183.52 243.78000000000003 3182.27 245.42000000000002 3180.41C245.43 3180.3999999999996 245.45000000000002 3180.3799999999997 245.46 3180.37ZM255.12 3187.4C255.20000000000002 3187.4 255.26 3187.37 255.33 3187.36C255.64000000000001 3187.9500000000003 255.92000000000002 3188.56 256.15000000000003 3189.2000000000003L230.58000000000004 3189.2000000000003C230.81000000000003 3188.5600000000004 231.10000000000005 3187.9500000000003 231.42000000000004 3187.36C231.48000000000005 3187.38 231.55000000000004 3187.4 231.62000000000003 3187.4ZM237.04 3185.6L232.54 3185.6C233.17999999999998 3184.75 233.92 3183.97 234.76999999999998 3183.2799999999997C234.79 3183.2799999999997 234.80999999999997 3183.29 234.82999999999998 3183.2999999999997C235.52999999999997 3183.5299999999997 236.27999999999997 3183.68 237.04 3183.7499999999995Z " fill="#7f8ea5" fill-opacity="1" transform="matrix(1,0,0,1,-211,-3164)"></path>
    <path id="SvgjsPath1074" d="M243.71 3171C242.22 3171 241 3172.21 241 3173.7C241 3175.1899999999996 242.22 3176.3999999999996 243.71 3176.3999999999996C245.21 3176.3999999999996 246.42000000000002 3175.1899999999996 246.42000000000002 3173.7C246.42000000000002 3172.21 245.21 3171 243.71 3171ZM243.71 3172.8C244.21 3172.8 244.62 3173.2000000000003 244.62 3173.7000000000003C244.62 3174.2000000000003 244.21 3174.6000000000004 243.71 3174.6000000000004C243.21 3174.6000000000004 242.81 3174.2000000000003 242.81 3173.7000000000003C242.81 3173.2000000000003 243.21 3172.8 243.71 3172.8Z " fill="#7f8ea5" fill-opacity="1" transform="matrix(1,0,0,1,-211,-3164)"></path>
</svg>