<svg id="SvgjsSvg1047" xmlns="http://www.w3.org/2000/svg" version="1.1" xmlns:xlink="http://www.w3.org/1999/xlink" xmlns:svgjs="http://svgjs.com/svgjs" width="81" height="63">
    <path id="SvgjsPath1049" d="M716.58 3187.74L739.98 3196.74C740.08 3196.7799999999997 740.19 3196.7999999999997 740.3000000000001 3196.7999999999997C740.6600000000001 3196.7999999999997 741.0000000000001 3196.58 741.1400000000001 3196.22C741.32 3195.7599999999998 741.0900000000001 3195.24 740.6200000000001 3195.06L717.2200000000001 3186.06C716.7600000000001 3185.88 716.2400000000001 3186.11 716.0600000000002 3186.58C715.8800000000002 3187.04 716.1100000000001 3187.56 716.5800000000002 3187.74Z " fill="#7f8ea5" fill-opacity="1" transform="matrix(1,0,0,1,-702,-3178)"></path>
    <path id="SvgjsPath1050" d="M783 3225.7C783 3217.2599999999998 776.14 3210.3999999999996 767.7 3210.3999999999996L753.8000000000001 3210.3999999999996C755.2400000000001 3208.7099999999996 756.0000000000001 3206.8799999999997 756.0000000000001 3204.9999999999995L756.0000000000001 3191.4999999999995C756.0000000000001 3183.9299999999994 744.1400000000001 3177.9999999999995 729.0000000000001 3177.9999999999995C713.8600000000001 3177.9999999999995 702.0000000000001 3183.9299999999994 702.0000000000001 3191.4999999999995L702.0000000000001 3204.9999999999995C702.0000000000001 3209.6799999999994 706.5500000000001 3213.8499999999995 714.2300000000001 3216.3299999999995C712.2200000000001 3218.9199999999996 711.0000000000001 3222.1699999999996 711.0000000000001 3225.6999999999994C711.0000000000001 3234.1399999999994 717.8600000000001 3240.9999999999995 726.3000000000001 3240.9999999999995L767.7 3240.9999999999995C767.94 3240.9999999999995 768.1800000000001 3240.9799999999996 768.4100000000001 3240.9599999999996C768.4800000000001 3240.9799999999996 768.5400000000001 3240.9999999999995 768.6000000000001 3240.9999999999995C768.7100000000002 3240.9999999999995 768.8100000000002 3240.9799999999996 768.9200000000002 3240.9399999999996C776.3800000000002 3240.3499999999995 782.3500000000001 3234.3799999999997 782.9400000000002 3226.9199999999996C783.0000000000001 3226.7499999999995 783.0000000000001 3226.5799999999995 782.9600000000002 3226.4099999999994C782.9700000000001 3226.1799999999994 783.0000000000001 3225.9399999999996 783.0000000000001 3225.6999999999994ZM754.2 3191.5C754.2 3197.84 742.6600000000001 3203.2 729 3203.2C715.34 3203.2 703.8 3197.8399999999997 703.8 3191.5C703.8 3185.16 715.3399999999999 3179.8 729 3179.8C742.66 3179.8 754.2 3185.1600000000003 754.2 3191.5ZM754.2 3205C754.2 3206.86 753.19 3208.72 751.2700000000001 3210.4L726.3000000000001 3210.4C725.7800000000001 3210.4 725.2600000000001 3210.4300000000003 724.7500000000001 3210.48C724.6800000000001 3210.4900000000002 724.6200000000001 3210.5 724.5500000000001 3210.51C724.11 3210.5600000000004 723.6600000000001 3210.6200000000003 723.22 3210.71C723.21 3210.71 723.19 3210.7200000000003 723.1800000000001 3210.7200000000003C721.72 3211.0200000000004 720.32 3211.53 719.0300000000001 3212.2400000000002C718.96 3212.28 718.9000000000001 3212.32 718.84 3212.3500000000004C718.48 3212.5600000000004 718.13 3212.76 717.7900000000001 3212.9900000000002C717.4900000000001 3213.2000000000003 717.2 3213.42 716.9100000000001 3213.6400000000003C716.82 3213.7100000000005 716.7300000000001 3213.7700000000004 716.6400000000001 3213.8500000000004C716.2500000000001 3214.1600000000003 715.8800000000001 3214.5000000000005 715.5200000000001 3214.8500000000004C713.45 3214.2300000000005 711.6200000000001 3213.4800000000005 710.0400000000001 3212.6300000000006L710.7400000000001 3211.9400000000005C711.0900000000001 3211.5900000000006 711.0900000000001 3211.0200000000004 710.7400000000001 3210.6600000000003C710.3800000000001 3210.3100000000004 709.8100000000002 3210.3100000000004 709.4600000000002 3210.6600000000003L708.5600000000002 3211.5600000000004C708.5200000000002 3211.6100000000006 708.5000000000002 3211.6600000000003 708.4700000000001 3211.7100000000005C707.8600000000001 3211.3100000000004 707.3100000000002 3210.9000000000005 706.8100000000002 3210.4600000000005L710.7400000000001 3206.5400000000004C711.0900000000001 3206.1900000000005 711.0900000000001 3205.6200000000003 710.7400000000001 3205.26C710.3800000000001 3204.9100000000003 709.8100000000002 3204.9100000000003 709.4600000000002 3205.26L705.5300000000002 3209.19C705.0600000000002 3208.63 704.6800000000002 3208.05 704.4000000000002 3207.46C704.4100000000002 3207.45 704.4200000000002 3207.45 704.4400000000002 3207.44L710.4700000000001 3201.4C710.4900000000001 3201.4100000000003 710.5100000000001 3201.42 710.5200000000001 3201.42C710.95 3201.62 711.3900000000001 3201.81 711.8400000000001 3202C711.9100000000002 3202.02 711.9800000000001 3202.05 712.0400000000002 3202.08C712.4600000000002 3202.24 712.8800000000002 3202.4 713.3100000000002 3202.5499999999997C713.4000000000002 3202.58 713.5000000000002 3202.62 713.6000000000001 3202.6499999999996C714.0800000000002 3202.8199999999997 714.5700000000002 3202.97 715.0800000000002 3203.1199999999994C715.1700000000002 3203.1499999999996 715.2700000000002 3203.1799999999994 715.3600000000001 3203.1999999999994C715.8100000000002 3203.3299999999995 716.2700000000001 3203.4599999999996 716.7400000000001 3203.5699999999993C716.8400000000001 3203.5999999999995 716.9300000000002 3203.6199999999994 717.0300000000001 3203.6399999999994C717.5600000000001 3203.7699999999995 718.1000000000001 3203.8899999999994 718.6500000000001 3203.9999999999995C718.7700000000001 3204.0299999999997 718.8800000000001 3204.0499999999997 719.0000000000001 3204.0699999999997C719.5000000000001 3204.1699999999996 720.0000000000001 3204.2599999999998 720.5200000000001 3204.3399999999997C720.6000000000001 3204.35 720.6800000000001 3204.37 720.7700000000001 3204.3799999999997C721.3400000000001 3204.47 721.9200000000001 3204.5499999999997 722.5100000000001 3204.6199999999994C722.6500000000001 3204.6399999999994 722.7900000000001 3204.6499999999996 722.9200000000001 3204.6699999999996C723.48 3204.7299999999996 724.0400000000001 3204.7799999999997 724.6100000000001 3204.8299999999995C724.6600000000001 3204.8299999999995 724.7200000000001 3204.8399999999997 724.7700000000001 3204.8399999999997C725.3900000000001 3204.89 726.0100000000001 3204.9199999999996 726.6300000000001 3204.95C726.7800000000001 3204.95 726.9300000000001 3204.96 727.0800000000002 3204.96C727.7100000000002 3204.98 728.3500000000001 3205 729.0000000000001 3205C729.6500000000001 3205 730.2900000000001 3204.98 730.9200000000001 3204.96C731.07 3204.96 731.22 3204.95 731.3700000000001 3204.95C732.0000000000001 3204.9199999999996 732.6200000000001 3204.89 733.2300000000001 3204.8399999999997C733.2800000000001 3204.8399999999997 733.3400000000001 3204.8299999999995 733.3900000000001 3204.8299999999995C733.9600000000002 3204.7799999999993 734.5200000000001 3204.7299999999996 735.0800000000002 3204.6699999999996C735.2200000000001 3204.6499999999996 735.3500000000001 3204.6399999999994 735.4900000000001 3204.6199999999994C736.0800000000002 3204.5499999999993 736.6600000000001 3204.4699999999993 737.2300000000001 3204.3799999999997C737.3200000000002 3204.3699999999994 737.4000000000001 3204.3499999999995 737.4900000000001 3204.3399999999997C738.0000000000001 3204.2599999999998 738.5000000000001 3204.1699999999996 739.0000000000001 3204.0699999999997C739.1200000000001 3204.0499999999997 739.2400000000001 3204.0299999999997 739.3500000000001 3203.9999999999995C739.9000000000001 3203.8899999999994 740.4400000000002 3203.7699999999995 740.9800000000001 3203.6399999999994C741.0700000000002 3203.6199999999994 741.1600000000001 3203.5999999999995 741.2600000000001 3203.5699999999993C741.7300000000001 3203.459999999999 742.19 3203.3299999999995 742.6400000000001 3203.1999999999994C742.7300000000001 3203.1799999999994 742.8300000000002 3203.149999999999 742.9200000000001 3203.1199999999994C743.4300000000001 3202.9699999999993 743.9200000000001 3202.8199999999993 744.4000000000001 3202.6499999999996C744.5000000000001 3202.6199999999994 744.6000000000001 3202.5799999999995 744.69 3202.5499999999997C745.12 3202.3999999999996 745.5500000000001 3202.24 745.96 3202.08C746.02 3202.0499999999997 746.09 3202.02 746.1600000000001 3202C746.6100000000001 3201.81 747.0500000000001 3201.62 747.4800000000001 3201.42C747.5700000000002 3201.38 747.6600000000001 3201.34 747.7500000000001 3201.29C748.1400000000001 3201.1 748.5300000000001 3200.91 748.9000000000001 3200.71C748.9300000000001 3200.69 748.9700000000001 3200.67 749.0100000000001 3200.65C749.4100000000001 3200.4300000000003 749.7800000000001 3200.21 750.1500000000001 3199.98C750.2300000000001 3199.93 750.3100000000001 3199.88 750.3900000000001 3199.82C750.7500000000001 3199.59 751.1000000000001 3199.36 751.4200000000001 3199.1200000000003C751.4300000000001 3199.11 751.4300000000001 3199.11 751.44 3199.11C751.7700000000001 3198.86 752.08 3198.61 752.37 3198.35C752.44 3198.29 752.51 3198.23 752.58 3198.17C752.87 3197.91 753.14 3197.65 753.4000000000001 3197.38C753.4200000000001 3197.36 753.4300000000001 3197.34 753.45 3197.32C753.69 3197.07 753.9000000000001 3196.81 754.11 3196.55C754.14 3196.51 754.17 3196.48 754.2 3196.44ZM716.52 3216.42C716.78 3216.15 717.05 3215.89 717.3299999999999 3215.64C717.3899999999999 3215.58 717.4599999999999 3215.5099999999998 717.53 3215.45C717.78 3215.24 718.04 3215.0499999999997 718.3 3214.85C718.41 3214.77 718.52 3214.68 718.64 3214.5899999999997C718.85 3214.45 719.05 3214.3299999999995 719.26 3214.2C719.45 3214.0899999999997 719.63 3213.97 719.8199999999999 3213.8599999999997C719.9499999999999 3213.7899999999995 720.0899999999999 3213.7299999999996 720.2199999999999 3213.66C720.4899999999999 3213.52 720.7599999999999 3213.3799999999997 721.04 3213.27C721.0899999999999 3213.25 721.13 3213.23 721.18 3213.21C722.76 3212.56 724.4899999999999 3212.2 726.3 3212.2L746.0999999999999 3212.2L746.0999999999999 3239.2L726.3 3239.2C718.8599999999999 3239.2 712.8 3233.14 712.8 3225.7C712.8 3222.1099999999997 714.2199999999999 3218.8399999999997 716.52 3216.4199999999996ZM774.39 3213.99C774.98 3214.33 775.55 3214.7099999999996 776.09 3215.14L752.0300000000001 3239.2L749.1700000000001 3239.2ZM770.48 3212.49C771.24 3212.6499999999996 771.96 3212.8799999999997 772.6700000000001 3213.16L747.9000000000001 3237.93L747.9000000000001 3235.0699999999997ZM757.43 3239.2L754.5699999999999 3239.2L777.42 3216.35C777.89 3216.8399999999997 778.3199999999999 3217.36 778.7099999999999 3217.92ZM747.9 3232.53L747.9 3229.67L765.37 3212.2000000000003L767.7 3212.2000000000003C767.87 3212.2000000000003 768.0300000000001 3212.2200000000003 768.2 3212.2300000000005ZM779.68 3219.5C780.01 3220.14 780.3 3220.81 780.52 3221.5L762.8299999999999 3239.2L759.9699999999999 3239.2ZM781.01 3223.56C781.13 3224.2599999999998 781.2 3224.97 781.2 3225.7C781.2 3225.89 781.1800000000001 3226.0699999999997 781.1700000000001 3226.2599999999998L768.2600000000001 3239.1699999999996C768.07 3239.18 767.8900000000001 3239.2 767.7000000000002 3239.2L765.3700000000001 3239.2ZM747.9 3227.13L747.9 3224.27L759.97 3212.2L762.83 3212.2ZM747.9 3221.73L747.9 3218.87L754.5699999999999 3212.2L757.43 3212.2ZM703.8 3202.67L707.03 3199.44C707.22 3199.57 707.41 3199.7000000000003 707.61 3199.83C707.69 3199.88 707.77 3199.93 707.85 3199.98C708.16 3200.17 708.47 3200.36 708.7900000000001 3200.54L703.84 3205.49C703.82 3205.33 703.8000000000001 3205.1699999999996 703.8000000000001 3205ZM752.03 3212.2L747.9 3216.33L747.9 3212.2ZM704.6 3197.38C704.86 3197.65 705.14 3197.9100000000003 705.4200000000001 3198.17C705.48 3198.2200000000003 705.5400000000001 3198.28 705.6 3198.33L703.8000000000001 3200.13L703.8000000000001 3196.44C703.83 3196.48 703.86 3196.51 703.8900000000001 3196.55C704.1000000000001 3196.8100000000004 704.32 3197.07 704.5500000000001 3197.32C704.57 3197.34 704.59 3197.36 704.6 3197.38ZM780.71 3229.27C779.45 3233.84 775.85 3237.45 771.27 3238.71Z " fill="#7f8ea5" fill-opacity="1" transform="matrix(1,0,0,1,-702,-3178)"></path>
</svg>