<svg id="SvgjsSvg1051" xmlns="http://www.w3.org/2000/svg" version="1.1" xmlns:xlink="http://www.w3.org/1999/xlink" xmlns:svgjs="http://svgjs.com/svgjs" width="44" height="44"><defs id="SvgjsDefs1052"></defs><path id="SvgjsPath1053" d="M114 3327C114 3314.84974 123.84974 3305 136 3305C148.15026 3305 158 3314.84974 158 3327C158 3339.15026 148.15026 3349 136 3349C123.84974 3349 114 3339.15026 114 3327Z " fill="#6bd869" fill-opacity="1" transform="matrix(1,0,0,1,-114,-3305)"></path><path id="SvgjsPath1054" d="M126 3327C126 3325.89543 126.89543 3325 128 3325L144 3325C145.10457 3325 146 3325.89543 146 3327L146 3327C146 3328.10457 145.10457 3329 144 3329L128 3329C126.89543 3329 126 3328.10457 126 3327Z " fill="#ffffff" fill-opacity="1" transform="matrix(1,0,0,1,-114,-3305)"></path><path id="SvgjsPath1055" d="M136 3317C137.10457 3317 138 3317.89543 138 3319L138 3335C138 3336.10457 137.10457 3337 136 3337L136 3337C134.89543 3337 134 3336.10457 134 3335L134 3319C134 3317.89543 134.89543 3317 136 3317Z " fill="#ffffff" fill-opacity="1" transform="matrix(1,0,0,1,-114,-3305)"></path></svg>