<svg id="SvgjsSvg1033" xmlns="http://www.w3.org/2000/svg" version="1.1" xmlns:xlink="http://www.w3.org/1999/xlink" xmlns:svgjs="http://svgjs.com/svgjs" width="81" height="81">
<path id="SvgjsPath1035" d="M606.72 3199.73C613.74 3192.71 613.74 3181.29 606.72 3174.27C603.32 3170.87 598.8000000000001 3169 593.99 3169C589.1800000000001 3169 584.66 3170.87 581.26 3174.27L571.49 3184.04L561.72 3174.27C558.32 3170.87 553.8000000000001 3169 548.99 3169C544.1800000000001 3169 539.66 3170.87 536.26 3174.27C532.58 3177.96 530.85 3182.85 531.03 3187.69C530.99 3187.87 530.99 3188.06 531.06 3188.2400000000002C531.3499999999999 3192.4300000000003 533.0699999999999 3196.53 536.26 3199.73L546.04 3209.5L536.26 3219.27C533.34 3222.19 531.65 3225.88 531.17 3229.7C530.99 3229.96 530.9499999999999 3230.2799999999997 531.0699999999999 3230.56C530.66 3235.63 532.39 3240.85 536.26 3244.73C539.66 3248.13 544.18 3250 548.99 3250C549.48 3250 549.96 3249.97 550.45 3249.93C550.5600000000001 3249.98 550.6700000000001 3250 550.7900000000001 3250C550.96 3250 551.1200000000001 3249.94 551.2700000000001 3249.84C555.2100000000002 3249.34 558.8600000000001 3247.58 561.7200000000001 3244.73L571.4900000000001 3234.95L581.2600000000001 3244.73C584.3800000000001 3247.84 588.44 3249.66 592.7900000000001 3249.94C592.8900000000001 3249.98 592.9900000000001 3250 593.09 3250C593.15 3250 593.21 3249.98 593.27 3249.96C593.51 3249.9700000000003 593.75 3250 593.99 3250C598.8 3250 603.32 3248.13 606.72 3244.73C613.74 3237.71 613.74 3226.29 606.72 3219.27L596.95 3209.5ZM553.64 3247.52L555.93 3245.24C556.28 3244.89 556.28 3244.3199999999997 555.93 3243.9599999999996C555.5799999999999 3243.6099999999997 555.01 3243.6099999999997 554.66 3243.9599999999996L550.49 3248.1299999999997C550 3248.1699999999996 549.5 3248.2 548.99 3248.2C548.54 3248.2 548.08 3248.1699999999996 547.63 3248.1299999999997L550.53 3245.24C550.88 3244.8799999999997 550.88 3244.3199999999997 550.53 3243.9599999999996C550.18 3243.6099999999997 549.61 3243.6099999999997 549.26 3243.9599999999996L545.66 3247.5599999999995C545.5799999999999 3247.6399999999994 545.53 3247.7199999999993 545.49 3247.8099999999995C544.72 3247.6399999999994 543.97 3247.4099999999994 543.23 3247.1299999999997L546.03 3244.3399999999997C546.38 3243.9799999999996 546.38 3243.4199999999996 546.03 3243.0599999999995C545.68 3242.7099999999996 545.11 3242.7099999999996 544.76 3243.0599999999995L541.47 3246.3499999999995C540.86 3246.0299999999993 540.27 3245.6599999999994 539.7 3245.2599999999993C539.71 3245.249999999999 539.72 3245.2399999999993 539.73 3245.2399999999993L542.4300000000001 3242.5399999999995C542.7800000000001 3242.1799999999994 542.7800000000001 3241.6199999999994 542.4300000000001 3241.2599999999993C542.08 3240.9099999999994 541.5100000000001 3240.9099999999994 541.1600000000001 3241.2599999999993L538.46 3243.959999999999C538.4000000000001 3244.019999999999 538.36 3244.099999999999 538.32 3244.169999999999C538.0600000000001 3243.9299999999994 537.7900000000001 3243.709999999999 537.5400000000001 3243.459999999999C537.2800000000001 3243.199999999999 537.0600000000001 3242.929999999999 536.83 3242.669999999999C536.9000000000001 3242.629999999999 536.97 3242.599999999999 537.0300000000001 3242.539999999999L539.7300000000001 3239.8399999999992C540.0800000000002 3239.4899999999993 540.0800000000002 3238.919999999999 539.7300000000001 3238.559999999999C539.3800000000001 3238.209999999999 538.8100000000002 3238.209999999999 538.4600000000002 3238.559999999999L535.7600000000001 3241.259999999999C535.7500000000001 3241.269999999999 535.7500000000001 3241.279999999999 535.7400000000001 3241.289999999999C535.3400000000001 3240.719999999999 534.9600000000002 3240.129999999999 534.6400000000001 3239.519999999999L537.9300000000001 3236.239999999999C538.2800000000001 3235.889999999999 538.2800000000001 3235.319999999999 537.9300000000001 3234.9599999999987C537.58 3234.6099999999988 537.0100000000001 3234.6099999999988 536.6600000000001 3234.9599999999987L533.8600000000001 3237.759999999999C533.5800000000002 3237.019999999999 533.3600000000001 3236.259999999999 533.1900000000002 3235.489999999999C533.2700000000002 3235.449999999999 533.3600000000001 3235.409999999999 533.4300000000002 3235.339999999999L536.1300000000002 3232.639999999999C536.4800000000002 3232.289999999999 536.4800000000002 3231.719999999999 536.1300000000002 3231.3599999999988C535.7800000000002 3231.009999999999 535.2100000000003 3231.009999999999 534.8600000000002 3231.3599999999988L532.8600000000002 3233.3599999999988C532.7900000000002 3232.3999999999987 532.7800000000002 3231.449999999999 532.8700000000002 3230.489999999999L536.1300000000002 3227.239999999999C536.4800000000002 3226.889999999999 536.4800000000002 3226.319999999999 536.1300000000002 3225.9599999999987C535.7800000000002 3225.6099999999988 535.2100000000003 3225.6099999999988 534.8600000000002 3225.9599999999987L533.4800000000002 3227.339999999999C534.2300000000002 3224.849999999999 535.5800000000003 3222.509999999999 537.5400000000002 3220.5399999999986L547.9400000000002 3210.1399999999985C547.9400000000002 3210.1399999999985 547.9400000000002 3210.1399999999985 547.9500000000002 3210.1399999999985L572.1300000000001 3185.9499999999985L582.5400000000001 3175.5499999999984C585.6 3172.4899999999984 589.6700000000001 3170.7999999999984 593.9900000000001 3170.7999999999984C598.3200000000002 3170.7999999999984 602.3900000000001 3172.4899999999984 605.4500000000002 3175.539999999998C611.7600000000001 3181.8599999999983 611.7600000000001 3192.139999999998 605.4500000000002 3198.459999999998L560.4500000000002 3243.459999999998C558.5200000000002 3245.3799999999983 556.1900000000002 3246.7599999999984 553.6400000000002 3247.519999999998ZM549.63 3203.84C549.98 3203.48 549.98 3202.92 549.63 3202.56C549.28 3202.21 548.71 3202.21 548.36 3202.56L545 3205.92L543.57 3204.4900000000002L546.9300000000001 3201.1400000000003C547.2800000000001 3200.78 547.2800000000001 3200.2200000000003 546.9300000000001 3199.86C546.58 3199.51 546.0100000000001 3199.51 545.6600000000001 3199.86L542.3000000000001 3203.2200000000003L540.8700000000001 3201.7900000000004L544.2300000000001 3198.4400000000005C544.5800000000002 3198.0800000000004 544.5800000000002 3197.5200000000004 544.2300000000001 3197.1600000000003C543.8800000000001 3196.8100000000004 543.3100000000002 3196.8100000000004 542.9600000000002 3197.1600000000003L539.6000000000001 3200.5200000000004L538.1700000000002 3199.0900000000006L541.5300000000002 3195.7400000000007C541.8800000000002 3195.3800000000006 541.8800000000002 3194.8200000000006 541.5300000000002 3194.4600000000005C541.1800000000002 3194.1100000000006 540.6100000000002 3194.1100000000006 540.2600000000002 3194.4600000000005L536.9300000000002 3197.7900000000004C536.4800000000001 3197.28 536.0500000000002 3196.7500000000005 535.6700000000002 3196.1900000000005L538.8300000000002 3193.0400000000004C539.1800000000002 3192.6800000000003 539.1800000000002 3192.1100000000006 538.8300000000002 3191.76C538.4800000000001 3191.4100000000003 537.9100000000002 3191.4100000000003 537.5600000000002 3191.76L534.7000000000002 3194.6200000000003C534.3600000000001 3193.9800000000005 534.0700000000002 3193.3100000000004 533.8200000000002 3192.6400000000003L537.0300000000002 3189.4400000000005C537.3800000000002 3189.0800000000004 537.3800000000002 3188.5200000000004 537.0300000000002 3188.1600000000003C536.6800000000002 3187.8100000000004 536.1100000000002 3187.8100000000004 535.7600000000002 3188.1600000000003L533.2400000000002 3190.6800000000003C533.0500000000002 3189.8700000000003 532.9200000000002 3189.0400000000004 532.8600000000002 3188.2100000000005L536.1300000000002 3184.9400000000005C536.4800000000002 3184.5800000000004 536.4800000000002 3184.0200000000004 536.1300000000002 3183.6600000000003C535.7800000000002 3183.3100000000004 535.2100000000003 3183.3100000000004 534.8600000000002 3183.6600000000003L532.8600000000002 3185.6600000000003C533.1700000000002 3181.9700000000003 534.7200000000003 3178.36 537.5400000000002 3175.5400000000004C540.6000000000001 3172.4900000000002 544.6700000000002 3170.8000000000006 548.9900000000002 3170.8000000000006C553.3200000000003 3170.8000000000006 557.3900000000002 3172.4900000000007 560.4500000000003 3175.5400000000004L570.2200000000003 3185.3200000000006L547.3100000000003 3208.2300000000005L546.2700000000003 3207.1900000000005ZM595.33 3248.14L597.33 3246.14C597.6800000000001 3245.7799999999997 597.6800000000001 3245.22 597.33 3244.8599999999997C596.98 3244.5099999999998 596.4100000000001 3244.5099999999998 596.0600000000001 3244.8599999999997L592.7800000000001 3248.14C591.94 3248.08 591.1100000000001 3247.95 590.3000000000001 3247.7599999999998L592.83 3245.24C593.1800000000001 3244.8799999999997 593.1800000000001 3244.3199999999997 592.83 3243.9599999999996C592.48 3243.6099999999997 591.9100000000001 3243.6099999999997 591.5600000000001 3243.9599999999996L588.35 3247.1699999999996C587.6700000000001 3246.9199999999996 587 3246.6399999999994 586.37 3246.2999999999997L589.23 3243.4399999999996C589.58 3243.0799999999995 589.58 3242.5099999999998 589.23 3242.1599999999994C588.88 3241.8099999999995 588.3100000000001 3241.8099999999995 587.96 3242.1599999999994L584.7900000000001 3245.3299999999995C584.2400000000001 3244.9399999999996 583.71 3244.5199999999995 583.2 3244.0599999999995L586.5300000000001 3240.7399999999993C586.8800000000001 3240.379999999999 586.8800000000001 3239.8199999999993 586.5300000000001 3239.459999999999C586.1800000000001 3239.109999999999 585.6100000000001 3239.109999999999 585.2600000000001 3239.459999999999L581.9000000000001 3242.8199999999993L580.4700000000001 3241.3899999999994L583.8300000000002 3238.0399999999995C584.1800000000002 3237.6799999999994 584.1800000000002 3237.1199999999994 583.8300000000002 3236.7599999999993C583.4800000000001 3236.4099999999994 582.9100000000002 3236.4099999999994 582.5600000000002 3236.7599999999993L579.2000000000002 3240.1199999999994L577.7700000000002 3238.6899999999996L581.1300000000002 3235.3399999999997C581.4800000000002 3234.9799999999996 581.4800000000002 3234.4199999999996 581.1300000000002 3234.0599999999995C580.7800000000002 3233.7099999999996 580.2100000000003 3233.7099999999996 579.8600000000002 3234.0599999999995L576.5000000000002 3237.4199999999996L575.0700000000003 3235.99L578.4300000000003 3232.64C578.7800000000003 3232.2799999999997 578.7800000000003 3231.72 578.4300000000003 3231.3599999999997C578.0800000000003 3231.0099999999998 577.5100000000003 3231.0099999999998 577.1600000000003 3231.3599999999997L573.8000000000003 3234.72L572.7600000000003 3233.68L584.2200000000004 3222.23L595.6800000000004 3210.77L605.4500000000004 3220.54C611.7600000000003 3226.86 611.7600000000003 3237.14 605.4500000000004 3243.46C602.7100000000004 3246.2 599.1500000000004 3247.82 595.3300000000004 3248.14Z " fill="#6bd869" fill-opacity="1" transform="matrix(1,0,0,1,-531,-3169)"></path>
<path id="SvgjsPath1036" d="M560.4 3208.7C560.4 3207.21 559.1899999999999 3206 557.6999999999999 3206C556.2099999999999 3206 554.9999999999999 3207.21 554.9999999999999 3208.7C554.9999999999999 3210.1899999999996 556.2099999999999 3211.3999999999996 557.6999999999999 3211.3999999999996C559.1899999999999 3211.3999999999996 560.4 3210.1899999999996 560.4 3208.7ZM558.6 3208.7C558.6 3209.2 558.2 3209.6 557.7 3209.6C557.2 3209.6 556.8000000000001 3209.2 556.8000000000001 3208.7C556.8000000000001 3208.2 557.2 3207.7999999999997 557.7 3207.7999999999997C558.2 3207.7999999999997 558.6 3208.2 558.6 3208.7Z " fill="#6bd869" fill-opacity="1" transform="matrix(1,0,0,1,-531,-3169)"></path>
    <path id="SvgjsPath1037" d="M567.4 3201.7C567.4 3200.21 566.1899999999999 3199 564.6999999999999 3199C563.2099999999999 3199 561.9999999999999 3200.21 561.9999999999999 3201.7C561.9999999999999 3203.1899999999996 563.2099999999999 3204.3999999999996 564.6999999999999 3204.3999999999996C566.1899999999999 3204.3999999999996 567.4 3203.1899999999996 567.4 3201.7ZM565.6 3201.7C565.6 3202.2 565.2 3202.6 564.7 3202.6C564.2 3202.6 563.8000000000001 3202.2 563.8000000000001 3201.7C563.8000000000001 3201.2 564.2 3200.7999999999997 564.7 3200.7999999999997C565.2 3200.7999999999997 565.6 3201.2 565.6 3201.7Z " fill="#6bd869" fill-opacity="1" transform="matrix(1,0,0,1,-531,-3169)"></path>
    <path id="SvgjsPath1038" d="M584 3208.7C584 3210.1899999999996 585.21 3211.3999999999996 586.7 3211.3999999999996C588.19 3211.3999999999996 589.4000000000001 3210.1899999999996 589.4000000000001 3208.7C589.4000000000001 3207.21 588.19 3206 586.7 3206C585.21 3206 584 3207.21 584 3208.7ZM585.8 3208.7C585.8 3208.2 586.1999999999999 3207.7999999999997 586.6999999999999 3207.7999999999997C587.1999999999999 3207.7999999999997 587.5999999999999 3208.2 587.5999999999999 3208.7C587.5999999999999 3209.2 587.1999999999999 3209.6 586.6999999999999 3209.6C586.1999999999999 3209.6 585.8 3209.2 585.8 3208.7Z " fill="#6bd869" fill-opacity="1" transform="matrix(1,0,0,1,-531,-3169)"></path>
    <path id="SvgjsPath1039" d="M574.4 3194.7C574.4 3193.21 573.1899999999999 3192 571.6999999999999 3192C570.2099999999999 3192 568.9999999999999 3193.21 568.9999999999999 3194.7C568.9999999999999 3196.1899999999996 570.2099999999999 3197.3999999999996 571.6999999999999 3197.3999999999996C573.1899999999999 3197.3999999999996 574.4 3196.1899999999996 574.4 3194.7ZM572.6 3194.7C572.6 3195.2 572.2 3195.6 571.7 3195.6C571.2 3195.6 570.8000000000001 3195.2 570.8000000000001 3194.7C570.8000000000001 3194.2 571.2 3193.7999999999997 571.7 3193.7999999999997C572.2 3193.7999999999997 572.6 3194.2 572.6 3194.7Z " fill="#6bd869" fill-opacity="1" transform="matrix(1,0,0,1,-531,-3169)"></path>
    <path id="SvgjsPath1040" d="M574.4 3208.7C574.4 3207.21 573.1899999999999 3206 571.6999999999999 3206C570.2099999999999 3206 568.9999999999999 3207.21 568.9999999999999 3208.7C568.9999999999999 3210.1899999999996 570.2099999999999 3211.3999999999996 571.6999999999999 3211.3999999999996C573.1899999999999 3211.3999999999996 574.4 3210.1899999999996 574.4 3208.7ZM572.6 3208.7C572.6 3209.2 572.2 3209.6 571.7 3209.6C571.2 3209.6 570.8000000000001 3209.2 570.8000000000001 3208.7C570.8000000000001 3208.2 571.2 3207.7999999999997 571.7 3207.7999999999997C572.2 3207.7999999999997 572.6 3208.2 572.6 3208.7Z " fill="#6bd869" fill-opacity="1" transform="matrix(1,0,0,1,-531,-3169)"></path>
    <path id="SvgjsPath1041" d="M574.4 3223.7C574.4 3222.21 573.1899999999999 3221 571.6999999999999 3221C570.2099999999999 3221 568.9999999999999 3222.21 568.9999999999999 3223.7C568.9999999999999 3225.1899999999996 570.2099999999999 3226.3999999999996 571.6999999999999 3226.3999999999996C573.1899999999999 3226.3999999999996 574.4 3225.1899999999996 574.4 3223.7ZM572.6 3223.7C572.6 3224.2 572.2 3224.6 571.7 3224.6C571.2 3224.6 570.8000000000001 3224.2 570.8000000000001 3223.7C570.8000000000001 3223.2 571.2 3222.7999999999997 571.7 3222.7999999999997C572.2 3222.7999999999997 572.6 3223.2 572.6 3223.7Z " fill="#6bd869" fill-opacity="1" transform="matrix(1,0,0,1,-531,-3169)"></path>
    <path id="SvgjsPath1042" d="M576 3201.7C576 3203.1899999999996 577.21 3204.3999999999996 578.7 3204.3999999999996C580.19 3204.3999999999996 581.4000000000001 3203.1899999999996 581.4000000000001 3201.7C581.4000000000001 3200.21 580.19 3199 578.7 3199C577.21 3199 576 3200.21 576 3201.7ZM577.8 3201.7C577.8 3201.2 578.1999999999999 3200.7999999999997 578.6999999999999 3200.7999999999997C579.1999999999999 3200.7999999999997 579.5999999999999 3201.2 579.5999999999999 3201.7C579.5999999999999 3202.2 579.1999999999999 3202.6 578.6999999999999 3202.6C578.1999999999999 3202.6 577.8 3202.2 577.8 3201.7Z " fill="#6bd869" fill-opacity="1" transform="matrix(1,0,0,1,-531,-3169)"></path>
    <path id="SvgjsPath1043" d="M567.4 3216.7C567.4 3215.21 566.1899999999999 3214 564.6999999999999 3214C563.2099999999999 3214 561.9999999999999 3215.21 561.9999999999999 3216.7C561.9999999999999 3218.1899999999996 563.2099999999999 3219.3999999999996 564.6999999999999 3219.3999999999996C566.1899999999999 3219.3999999999996 567.4 3218.1899999999996 567.4 3216.7ZM565.6 3216.7C565.6 3217.2 565.2 3217.6 564.7 3217.6C564.2 3217.6 563.8000000000001 3217.2 563.8000000000001 3216.7C563.8000000000001 3216.2 564.2 3215.7999999999997 564.7 3215.7999999999997C565.2 3215.7999999999997 565.6 3216.2 565.6 3216.7Z " fill="#6bd869" fill-opacity="1" transform="matrix(1,0,0,1,-531,-3169)"></path>
    <path id="SvgjsPath1044" d="M576 3216.7C576 3218.1899999999996 577.21 3219.3999999999996 578.7 3219.3999999999996C580.19 3219.3999999999996 581.4000000000001 3218.1899999999996 581.4000000000001 3216.7C581.4000000000001 3215.21 580.19 3214 578.7 3214C577.21 3214 576 3215.21 576 3216.7ZM577.8 3216.7C577.8 3216.2 578.1999999999999 3215.7999999999997 578.6999999999999 3215.7999999999997C579.1999999999999 3215.7999999999997 579.5999999999999 3216.2 579.5999999999999 3216.7C579.5999999999999 3217.2 579.1999999999999 3217.6 578.6999999999999 3217.6C578.1999999999999 3217.6 577.8 3217.2 577.8 3216.7Z " fill="#6bd869" fill-opacity="1" transform="matrix(1,0,0,1,-531,-3169)"></path>
    <path id="SvgjsPath1045" d="M552.54 3213.26C552.18 3212.9100000000003 551.62 3212.9100000000003 551.26 3213.26C550.91 3213.6200000000003 550.91 3214.1800000000003 551.26 3214.5400000000004L566.56 3229.8400000000006C566.7399999999999 3230.0100000000007 566.9699999999999 3230.100000000001 567.1999999999999 3230.100000000001C567.43 3230.100000000001 567.66 3230.0100000000007 567.8399999999999 3229.8400000000006C568.1899999999999 3229.4800000000005 568.1899999999999 3228.9200000000005 567.8399999999999 3228.5600000000004Z " fill="#6bd869" fill-opacity="1" transform="matrix(1,0,0,1,-531,-3169)"></path>
    <path id="SvgjsPath1046" d="M591.56 3204.84C591.7399999999999 3205.01 591.9699999999999 3205.1000000000004 592.1999999999999 3205.1000000000004C592.43 3205.1000000000004 592.66 3205.01 592.8399999999999 3204.84C593.1899999999999 3204.48 593.1899999999999 3203.92 592.8399999999999 3203.56L577.54 3188.2599999999998C577.18 3187.91 576.62 3187.91 576.26 3188.2599999999998C575.91 3188.62 575.91 3189.18 576.26 3189.54Z " fill="#6bd869" fill-opacity="1" transform="matrix(1,0,0,1,-531,-3169)"></path>
</svg>