<svg id="SvgjsSvg1030" xmlns="http://www.w3.org/2000/svg" version="1.1" xmlns:xlink="http://www.w3.org/1999/xlink" xmlns:svgjs="http://svgjs.com/svgjs" width="81" height="81">
    <path id="SvgjsPath1032" d="M107.6 3187.4C107.6 3188.9500000000003 107.91999999999999 3190.4500000000003 108.52 3191.88C106.2 3194.9500000000003 104.89999999999999 3198.71 104.89999999999999 3202.7000000000003L104.89999999999999 3223.4C104.89999999999999 3231.84 98.03999999999999 3238.7000000000003 89.6 3238.7000000000003C81.16 3238.7000000000003 74.3 3231.84 74.3 3223.4L74.3 3220.92C75.35 3220.05 76 3218.78 76.09 3217.42C85.53 3215.16 92.30000000000001 3206.63 92.30000000000001 3196.85L92.30000000000001 3196.4C92.30000000000001 3195.51 91.93 3194.71 91.33000000000001 3194.14L85.10000000000001 3168.52C85.10000000000001 3168.52 85.10000000000001 3168.5099999999998 85.10000000000001 3168.5C85.10000000000001 3166.02 83.08000000000001 3164 80.60000000000001 3164C78.12 3164 76.10000000000001 3166.02 76.10000000000001 3168.5C76.10000000000001 3170.98 78.12 3173 80.60000000000001 3173L80.63000000000001 3173L86.12 3195.57C86.05000000000001 3195.84 86 3196.11 86 3196.4L86 3196.85C86 3205.04 79.34 3211.7 71.15 3211.7C62.96000000000001 3211.7 56.300000000000004 3205.04 56.300000000000004 3196.85L56.300000000000004 3196.4C56.300000000000004 3196.11 56.25000000000001 3195.84 56.18000000000001 3195.57L61.67000000000001 3173L61.70000000000001 3173C64.18 3173 66.20000000000002 3170.98 66.20000000000002 3168.5C66.20000000000002 3166.02 64.18000000000002 3164 61.70000000000002 3164C59.22000000000002 3164 57.20000000000002 3166.02 57.20000000000002 3168.5L57.20000000000002 3168.53L50.97000000000001 3194.1400000000003C50.37000000000001 3194.7100000000005 50.000000000000014 3195.51 50.000000000000014 3196.4000000000005L50.000000000000014 3196.8500000000004C50.000000000000014 3206.6300000000006 56.77000000000001 3215.1600000000003 66.21000000000001 3217.4200000000005C66.30000000000001 3218.7800000000007 66.95 3220.0500000000006 68.00000000000001 3220.9200000000005L68.00000000000001 3223.4000000000005C68.00000000000001 3235.3100000000004 77.69000000000001 3245.0000000000005 89.60000000000002 3245.0000000000005C101.51000000000002 3245.0000000000005 111.20000000000002 3235.3100000000004 111.20000000000002 3223.4000000000005L111.20000000000002 3202.7000000000007C111.20000000000002 3201.310000000001 111.46000000000002 3199.980000000001 111.91000000000001 3198.7200000000007C112.03000000000002 3198.5700000000006 112.10000000000001 3198.390000000001 112.10000000000001 3198.2000000000007C112.27000000000001 3197.8000000000006 112.45 3197.4100000000008 112.66000000000001 3197.0300000000007C114.61000000000001 3198.370000000001 116.93 3199.100000000001 119.30000000000001 3199.100000000001C125.75000000000001 3199.100000000001 131 3193.850000000001 131 3187.400000000001C131 3180.950000000001 125.75 3175.700000000001 119.3 3175.700000000001C112.85 3175.700000000001 107.6 3180.950000000001 107.6 3187.400000000001ZM87.8 3196.4C87.8 3195.6600000000003 88.41 3195.05 89.14999999999999 3195.05C89.88999999999999 3195.05 90.49999999999999 3195.6600000000003 90.49999999999999 3196.4L90.49999999999999 3196.85C90.49999999999999 3206.0299999999997 83.96999999999998 3214.0099999999998 74.97999999999999 3215.8199999999997C74.52999999999999 3215.91 74.21999999999998 3216.33 74.25999999999999 3216.7899999999995L74.27999999999999 3216.9599999999996C74.28999999999999 3217.0099999999998 74.29999999999998 3217.0499999999997 74.29999999999998 3217.0999999999995C74.29999999999998 3218.1499999999996 73.77999999999999 3219.1299999999997 72.89999999999998 3219.7199999999993C72.64999999999998 3219.8899999999994 72.49999999999997 3220.169999999999 72.49999999999997 3220.4699999999993L72.49999999999997 3221.2299999999996L69.80999999999997 3223.9099999999994C69.80999999999997 3223.7399999999993 69.79999999999997 3223.5699999999993 69.79999999999997 3223.399999999999L69.79999999999997 3221.0699999999993L73.13999999999997 3217.7399999999993C73.48999999999997 3217.379999999999 73.48999999999997 3216.8199999999993 73.13999999999997 3216.459999999999C72.77999999999997 3216.109999999999 72.21999999999997 3216.109999999999 71.85999999999997 3216.459999999999L68.97999999999998 3219.349999999999C68.44999999999997 3218.839999999999 68.11999999999998 3218.169999999999 68.03999999999998 3217.429999999999L72.01999999999998 3213.459999999999C80.78999999999998 3212.999999999999 87.79999999999998 3205.7399999999993 87.79999999999998 3196.849999999999ZM85.84 3242.84L88.24000000000001 3240.4300000000003C88.69000000000001 3240.4700000000003 89.14000000000001 3240.5000000000005 89.60000000000001 3240.5000000000005C96.34 3240.5000000000005 102.17000000000002 3236.5600000000004 104.95 3230.8800000000006C105 3231.0100000000007 105.06 3231.1300000000006 105.16 3231.2400000000007C105.34 3231.4100000000008 105.57 3231.500000000001 105.8 3231.500000000001C106.03 3231.500000000001 106.25999999999999 3231.4100000000008 106.44 3231.2400000000007L108.55 3229.120000000001C106.1 3237.2600000000007 98.53 3243.2000000000007 89.6 3243.2000000000007C88.30999999999999 3243.2000000000007 87.05999999999999 3243.0700000000006 85.83999999999999 3242.8400000000006ZM81.14 3171.15C80.96 3171.1800000000003 80.78 3171.2000000000003 80.6 3171.2000000000003C79.11 3171.2000000000003 77.89999999999999 3169.9900000000002 77.89999999999999 3168.5000000000005C77.89999999999999 3167.0100000000007 79.10999999999999 3165.8000000000006 80.6 3165.8000000000006C82.08999999999999 3165.8000000000006 83.3 3167.0100000000007 83.3 3168.4200000000005C83.3 3168.4600000000005 83.28999999999999 3168.5400000000004 83.28999999999999 3168.5700000000006C83.28999999999999 3168.6500000000005 83.3 3168.7300000000005 83.32 3168.8100000000004L89.25999999999999 3193.2500000000005C89.24 3193.2500000000005 89.21999999999998 3193.2500000000005 89.21 3193.2500000000005C89.19 3193.2500000000005 89.16999999999999 3193.2500000000005 89.14999999999999 3193.2500000000005C88.55 3193.2500000000005 87.99999999999999 3193.4300000000003 87.52 3193.7200000000003L87.52 3193.69L82.19 3171.81C82.09 3171.41 81.73 3171.13 81.32 3171.13C81.25999999999999 3171.13 81.19999999999999 3171.13 81.13999999999999 3171.15ZM58.98 3168.81C59 3168.73 59.01 3168.65 59.01 3168.57C59.01 3168.52 59 3168.48 59 3168.5C59 3167.01 60.21 3165.8 61.7 3165.8C63.190000000000005 3165.8 64.4 3167.01 64.4 3168.5C64.4 3169.99 63.190000000000005 3171.2 61.7 3171.2C61.52 3171.2 61.34 3171.18 61.160000000000004 3171.1499999999996C60.67 3171.0499999999997 60.220000000000006 3171.3399999999997 60.1 3171.8099999999995L54.78 3193.6999999999994C54.77 3193.689999999999 54.75 3193.689999999999 54.74 3193.6799999999994L54.74 3193.6999999999994C54.27 3193.419999999999 53.730000000000004 3193.2499999999995 53.15 3193.2499999999995C53.129999999999995 3193.2499999999995 53.1 3193.2599999999998 53.08 3193.2599999999998L53.08 3193.2499999999995C53.07 3193.2499999999995 53.05 3193.2499999999995 53.04 3193.2499999999995ZM113.4 3189.6C113.41000000000001 3189.62 113.42 3189.63 113.42 3189.65C113.49 3189.82 113.56 3189.98 113.64 3190.15C113.66 3190.19 113.67 3190.23 113.69 3190.27C113.77 3190.42 113.86 3190.57 113.95 3190.72C113.98 3190.7599999999998 114 3190.7999999999997 114.03 3190.8399999999997C114.13 3190.9999999999995 114.24 3191.1499999999996 114.35 3191.2899999999995C114.36999999999999 3191.3199999999997 114.39 3191.3399999999997 114.41 3191.3599999999997C114.41 3191.37 114.41 3191.37 114.42 3191.37C114.56 3191.5499999999997 114.7 3191.71 114.86 3191.87C114.81 3191.91 114.76 3191.96 114.7 3192C114.41 3192.23 114.12 3192.46 113.85000000000001 3192.71C113.67 3192.87 113.49000000000001 3193.05 113.32000000000001 3193.2200000000003C113.19000000000001 3193.3500000000004 113.06 3193.4900000000002 112.93 3193.63C112.74000000000001 3193.84 112.55000000000001 3194.04 112.38000000000001 3194.26C112.32000000000001 3194.34 112.26 3194.42 112.2 3194.5C111.42 3195.51 110.79 3196.62 110.32000000000001 3197.8L106.76 3201.3700000000003C106.83 3200.55 106.95 3199.7500000000005 107.13000000000001 3198.9700000000003C107.2 3198.9300000000003 107.28000000000002 3198.9 107.34 3198.84L110.04 3196.1400000000003C110.39 3195.78 110.39 3195.2200000000003 110.04 3194.86C109.68 3194.51 109.12 3194.51 108.76 3194.86L108.67 3194.9500000000003C109.11 3194.15 109.62 3193.3900000000003 110.19 3192.67C110.21 3192.65 110.24 3192.63 110.25999999999999 3192.6C111.17999999999999 3191.46 112.22999999999999 3190.45 113.39999999999999 3189.6ZM116.71 3191.07C116.52 3190.9300000000003 116.33 3190.78 116.16999999999999 3190.6200000000003C116.14999999999999 3190.6000000000004 116.11999999999999 3190.5800000000004 116.1 3190.5600000000004C115.92999999999999 3190.3900000000003 115.78 3190.1900000000005 115.64 3189.9900000000002C115.61 3189.9500000000003 115.57000000000001 3189.9100000000003 115.54 3189.86C115.41000000000001 3189.67 115.31 3189.46 115.21000000000001 3189.25C115.18 3189.19 115.15 3189.12 115.13000000000001 3189.06C115.04 3188.85 114.98 3188.63 114.92000000000002 3188.41C114.91000000000001 3188.33 114.89000000000001 3188.25 114.88000000000001 3188.18C114.83000000000001 3187.9199999999996 114.80000000000001 3187.6699999999996 114.80000000000001 3187.3999999999996C114.80000000000001 3184.9199999999996 116.82000000000001 3182.8999999999996 119.30000000000001 3182.8999999999996C121.78000000000002 3182.8999999999996 123.80000000000001 3184.9199999999996 123.80000000000001 3187.3999999999996C123.80000000000001 3189.8799999999997 121.78000000000002 3191.8999999999996 119.30000000000001 3191.8999999999996C118.39000000000001 3191.8999999999996 117.54 3191.6199999999994 116.83000000000001 3191.1499999999996C116.79 3191.1299999999997 116.75000000000001 3191.0999999999995 116.71000000000001 3191.0699999999997ZM105.51 3229.61C105.99000000000001 3228.3900000000003 106.33 3227.1 106.52000000000001 3225.75L109.4 3222.87L109.4 3223.4C109.4 3224.25 109.34 3225.08 109.24000000000001 3225.9C109.23 3225.9 109.22000000000001 3225.9100000000003 109.21000000000001 3225.9100000000003ZM109.4 3204.19C109.34 3204.23 109.27000000000001 3204.26 109.21000000000001 3204.31L106.7 3206.83L106.7 3203.97L109.49000000000001 3201.18C109.43 3201.68 109.4 3202.19 109.4 3202.7ZM109.4 3217.47L109.4 3220.39C109.34 3220.43 109.27000000000001 3220.46 109.21000000000001 3220.5099999999998L106.7 3223.0299999999997L106.7 3220.1699999999996ZM109.4 3212.07L109.4 3214.9900000000002C109.34 3215.03 109.27000000000001 3215.0600000000004 109.21000000000001 3215.11L106.7 3217.63L106.7 3214.77ZM109.4 3206.67L109.4 3209.59C109.34 3209.63 109.27000000000001 3209.6600000000003 109.21000000000001 3209.71L106.7 3212.23L106.7 3209.37ZM70.44 3225.84L72.52 3223.75C72.53999999999999 3224.64 72.63 3225.51 72.77 3226.36C72.77 3226.36 72.77 3226.36 72.75999999999999 3226.36L70.49999999999999 3228.6200000000003C70.27999999999999 3227.7900000000004 70.09999999999998 3226.9400000000005 69.97999999999999 3226.0600000000004C70.14999999999999 3226.03 70.30999999999999 3225.9700000000003 70.43999999999998 3225.8400000000006ZM66.84 3213.24C66.92 3213.16 66.98 3213.06 67.02000000000001 3212.9599999999996C67.83000000000001 3213.1699999999996 68.66000000000001 3213.3299999999995 69.51 3213.4199999999996L67.15 3215.7799999999997C66.39 3215.62 65.64 3215.3999999999996 64.92 3215.1499999999996ZM52.44 3200.64L54.58 3198.49C54.67 3199.3399999999997 54.83 3200.1699999999996 55.04 3200.9799999999996C54.94 3201.0199999999995 54.85 3201.0799999999995 54.76 3201.1599999999994L52.85 3203.0799999999995C52.59 3202.3299999999995 52.38 3201.5599999999995 52.22 3200.7799999999993C52.3 3200.7399999999993 52.37 3200.6999999999994 52.44 3200.6399999999994ZM71.34 3230.34L73.25 3228.42C73.49 3229.1800000000003 73.79 3229.92 74.13 3230.63C73.96 3230.67 73.8 3230.73 73.66 3230.86L72.03 3232.5C71.69 3231.85 71.38 3231.18 71.11 3230.48C71.19 3230.44 71.27 3230.4 71.34 3230.34ZM83.8 3239.47C84.52 3239.73 85.25 3239.95 86.00999999999999 3240.12L83.8 3242.33C83.08 3242.11 82.39 3241.85 81.72 3241.56ZM63.2 3211.47C63.830000000000005 3211.8199999999997 64.49000000000001 3212.1099999999997 65.16 3212.37L63.099999999999994 3214.43C62.449999999999996 3214.1299999999997 61.81999999999999 3213.81 61.21999999999999 3213.45ZM54.56 3206.77C54.2 3206.16 53.86 3205.55 53.57 3204.91L55.63 3202.8399999999997C55.89 3203.5099999999998 56.18 3204.1699999999996 56.53 3204.7999999999997ZM73.14 3233.94L74.93 3232.14C75.28 3232.73 75.67 3233.2999999999997 76.09 3233.8399999999997L74.16 3235.7699999999995C73.72 3235.2299999999996 73.31 3234.6599999999994 72.92999999999999 3234.0699999999997C72.99999999999999 3234.0299999999997 73.08 3233.9999999999995 73.13999999999999 3233.9399999999996ZM80.2 3237.67C80.78 3238.06 81.39 3238.39 82.02 3238.71L80.00999999999999 3240.7200000000003C79.41 3240.38 78.82 3240.01 78.25999999999999 3239.6200000000003ZM60.05 3209.22C60.55 3209.68 61.08 3210.1 61.629999999999995 3210.49L59.69 3212.43C59.15 3212.0299999999997 58.629999999999995 3211.5899999999997 58.129999999999995 3211.14ZM57.51 3206.37C57.9 3206.92 58.32 3207.45 58.78 3207.95L56.86 3209.8599999999997C56.41 3209.3599999999997 55.98 3208.8399999999997 55.58 3208.2899999999995ZM77.26 3235.21C77.73 3235.7 78.21000000000001 3236.16 78.73 3236.59L76.82000000000001 3238.51C76.31 3238.07 75.82000000000001 3237.61 75.35000000000001 3237.1200000000003ZM51.8 3196.4C51.8 3195.6600000000003 52.41 3195.05 53.15 3195.05C53.78 3195.05 54.309999999999995 3195.4900000000002 54.449999999999996 3196.07L51.88999999999999 3198.6400000000003C51.82999999999999 3198.05 51.79999999999999 3197.4500000000003 51.79999999999999 3196.8500000000004ZM113.66 3195.54C113.88 3195.27 114.1 3195 114.34 3194.74C114.49000000000001 3194.5899999999997 114.64 3194.45 114.8 3194.2999999999997C114.98 3194.12 115.17 3193.95 115.36999999999999 3193.7799999999997C115.49999999999999 3193.6699999999996 115.63 3193.56 115.75999999999999 3193.4599999999996C115.96999999999998 3193.2999999999997 116.19999999999999 3193.1499999999996 116.41999999999999 3192.9999999999995C117.28999999999999 3193.4399999999996 118.25999999999999 3193.6999999999994 119.29999999999998 3193.6999999999994C122.76999999999998 3193.6999999999994 125.59999999999998 3190.8699999999994 125.59999999999998 3187.399999999999C125.59999999999998 3183.9299999999994 122.76999999999998 3181.099999999999 119.29999999999998 3181.099999999999C115.82999999999998 3181.099999999999 112.99999999999999 3183.929999999999 112.99999999999999 3187.399999999999C112.99999999999999 3187.499999999999 113.00999999999999 3187.5899999999992 113.01999999999998 3187.689999999999C111.84999999999998 3188.459999999999 110.77999999999999 3189.3399999999992 109.84999999999998 3190.3199999999993C109.54999999999998 3189.3699999999994 109.39999999999998 3188.399999999999 109.39999999999998 3187.399999999999C109.39999999999998 3181.939999999999 113.83999999999997 3177.499999999999 119.29999999999998 3177.499999999999C124.75999999999998 3177.499999999999 129.2 3181.939999999999 129.2 3187.399999999999C129.2 3192.859999999999 124.75999999999999 3197.2999999999993 119.29999999999998 3197.2999999999993C117.27999999999999 3197.2999999999993 115.30999999999999 3196.6799999999994 113.65999999999998 3195.539999999999Z " fill="#7f8ea5" fill-opacity="1" transform="matrix(1,0,0,1,-50,-3164)"></path>
</svg>