<svg id="SvgjsSvg1075" xmlns="http://www.w3.org/2000/svg" version="1.1" xmlns:xlink="http://www.w3.org/1999/xlink" xmlns:svgjs="http://svgjs.com/svgjs" width="44" height="44"><defs id="SvgjsDefs1076"></defs><path id="SvgjsPath1077" d="M50 3327C50 3314.84974 59.84974 3305 72 3305C84.15026 3305 94 3314.84974 94 3327C94 3339.15026 84.15026 3349 72 3349C59.84974 3349 50 3339.15026 50 3327Z " fill="#7f8ea5" fill-opacity="1" transform="matrix(1,0,0,1,-50,-3305)"></path><path id="SvgjsPath1078" d="M62 3327C62 3325.89543 62.89543 3325 64 3325L80 3325C81.10457 3325 82 3325.89543 82 3327L82 3327C82 3328.10457 81.10457 3329 80 3329L64 3329C62.89543 3329 62 3328.10457 62 3327Z " fill="#ffffff" fill-opacity="1" transform="matrix(1,0,0,1,-50,-3305)"></path><path id="SvgjsPath1079" d="M72 3317C73.10457 3317 74 3317.89543 74 3319L74 3335C74 3336.10457 73.10457 3337 72 3337L72 3337C70.89543 3337 70 3336.10457 70 3335L70 3319C70 3317.89543 70.89543 3317 72 3317Z " fill="#ffffff" fill-opacity="1" transform="matrix(1,0,0,1,-50,-3305)"></path></svg>