<svg id="SvgjsSvg1024" xmlns="http://www.w3.org/2000/svg" version="1.1" xmlns:xlink="http://www.w3.org/1999/xlink" xmlns:svgjs="http://svgjs.com/svgjs" width="64" height="64"><defs id="SvgjsDefs1025"><clipPath id="SvgjsClipPath1028"><path id="SvgjsPath1027" d="M144 3072C144 3054.32689 158.32689 3040 176 3040C193.67311 3040 208 3054.32689 208 3072C208 3089.67311 193.67311 3104 176 3104C158.32689 3104 144 3089.67311 144 3072Z " fill="#ffffff"></path></clipPath></defs><path id="SvgjsPath1026" d="M144 3072C144 3054.32689 158.32689 3040 176 3040C193.67311 3040 208 3054.32689 208 3072C208 3089.67311 193.67311 3104 176 3104C158.32689 3104 144 3089.67311 144 3072Z " fill-opacity="0" fill="#ffffff" stroke-dasharray="0" stroke-linejoin="miter" stroke-linecap="butt" stroke-opacity="1" stroke="#525b6a" stroke-miterlimit="50" stroke-width="4" clip-path="url(&quot;#SvgjsClipPath1028&quot;)" transform="matrix(1,0,0,1,-144,-3040)"></path><path id="SvgjsPath1029" d="M175.96 3073.46C175.96 3073.46 175.96 3073.46 175.97 3073.46C177.12 3073.46 184.15 3069.2 190.96 3064.84L190.96 3063.6000000000004C190.96 3062.7100000000005 190.34 3062.0000000000005 189.57000000000002 3062.0000000000005L162.39000000000001 3062.0000000000005C161.62 3062.0000000000005 161.00000000000003 3062.7100000000005 161.00000000000003 3063.6000000000004L161.00000000000003 3064.8700000000003C167.76000000000002 3069.2200000000003 174.74000000000004 3073.4600000000005 175.96000000000004 3073.4600000000005Z " fill="#525b6a" fill-opacity="1" transform="matrix(1,0,0,1,-144,-3040)"></path><path id="SvgjsPath1030" d="M175.98 3075.39C175.97 3075.39 175.97 3075.39 175.95999999999998 3075.39C174.36999999999998 3075.39 167.10999999999999 3070.96 160.99999999999997 3067.04L160.99999999999997 3080.52C160.99999999999997 3081.4 161.61999999999998 3082.11 162.38999999999996 3082.11L189.56999999999996 3082.11C190.33999999999997 3082.11 190.95999999999995 3081.4 190.95999999999995 3080.52L190.95999999999995 3067C184.80999999999995 3070.93 177.48999999999995 3075.39 175.97999999999996 3075.39Z " fill="#525b6a" fill-opacity="1" transform="matrix(1,0,0,1,-144,-3040)"></path></svg>