<svg id="SvgjsSvg1060" xmlns="http://www.w3.org/2000/svg" version="1.1" xmlns:xlink="http://www.w3.org/1999/xlink" xmlns:svgjs="http://svgjs.com/svgjs" width="64" height="64"><defs id="SvgjsDefs1061"></defs><path id="SvgjsPath1062" d="M134 3441C134 3423.32689 148.32689 3409 166 3409C183.67311 3409 198 3423.32689 198 3441C198 3458.67311 183.67311 3473 166 3473C148.32689 3473 134 3458.67311 134 3441Z " fill="#7f8ea5" fill-opacity="1" transform="matrix(1,0,0,1,-134,-3409)"></path><path id="SvgjsPath1063" d="M177.2475 3442.6L169.5675 3450.2999999999997C168.9075 3450.9599999999996 167.8275 3450.9599999999996 167.1675 3450.2999999999997C166.5075 3449.64 166.5075 3448.56 167.1675 3447.8999999999996L171.9675 3443.0999999999995L155.6975 3443.0999999999995C154.7575 3443.0999999999995 153.9975 3442.3399999999992 153.9975 3441.3999999999996C153.9975 3440.4599999999996 154.7575 3439.7 155.6975 3439.7L171.9675 3439.7L167.1675 3434.8999999999996C166.5075 3434.2299999999996 166.5075 3433.16 167.1675 3432.4999999999995C167.4975 3432.1699999999996 167.9375 3431.9999999999995 168.36749999999998 3431.9999999999995C168.79749999999999 3431.9999999999995 169.23749999999998 3432.1699999999996 169.56749999999997 3432.4999999999995L177.24749999999997 3440.1999999999994C177.91749999999996 3440.859999999999 177.91749999999996 3441.939999999999 177.24749999999997 3442.5999999999995L177.24749999999997 3442.5999999999995Z " fill="#ffffff" fill-opacity="1" transform="matrix(1,0,0,1,-134,-3409)"></path></svg>