<svg id="SvgjsSvg1056" xmlns="http://www.w3.org/2000/svg" version="1.1" xmlns:xlink="http://www.w3.org/1999/xlink" xmlns:svgjs="http://svgjs.com/svgjs" width="44" height="44"><defs id="SvgjsDefs1057"></defs><path id="SvgjsPath1058" d="M178 3327C178 3314.84974 187.84974 3305 200 3305C212.15026 3305 222 3314.84974 222 3327C222 3339.15026 212.15026 3349 200 3349C187.84974 3349 178 3339.15026 178 3327Z " fill="#72afff" fill-opacity="1" transform="matrix(1,0,0,1,-178,-3305)"></path><path id="SvgjsPath1059" d="M190 3327C190 3325.89543 190.89543 3325 192 3325L208 3325C209.10457 3325 210 3325.89543 210 3327L210 3327C210 3328.10457 209.10457 3329 208 3329L192 3329C190.89543 3329 190 3328.10457 190 3327Z " fill="#ffffff" fill-opacity="1" transform="matrix(1,0,0,1,-178,-3305)"></path></svg>