<svg id="SvgjsSvg1000" xmlns="http://www.w3.org/2000/svg" version="1.1" xmlns:xlink="http://www.w3.org/1999/xlink" xmlns:svgjs="http://svgjs.com/svgjs" width="31" height="31"><defs id="SvgjsDefs1001"></defs><path id="SvgjsPath1007" d="M96.28 3079.93C96.15 3079.7999999999997 96.02 3079.66 95.89 3079.5299999999997L95.14 3078.7599999999998C92.12 3075.79 90.93 3074.5699999999997 90.81 3074.49C90.67 3074.3599999999997 90.54 3074.2299999999996 90.4 3074.0899999999997C88.91000000000001 3072.7 87.88000000000001 3073.8099999999995 86.53 3075.85C86.41 3076.0299999999997 86.29 3076.21 86.19 3076.38C86.17999999999999 3076.38 86.17999999999999 3076.3900000000003 86.17999999999999 3076.3900000000003C86.13999999999999 3076.4500000000003 86.1 3076.51 86.07 3076.57C84.55 3078.92 84.67999999999999 3078.9700000000003 84.14999999999999 3078.8500000000004C84.11999999999999 3078.84 84.1 3078.84 84.08 3078.8300000000004C82.36 3078.2900000000004 82.56 3078.1900000000005 79.21 3074.7900000000004C75.80999999999999 3071.4400000000005 75.71 3071.6400000000003 75.16999999999999 3069.9200000000005C75.15999999999998 3069.9000000000005 75.15999999999998 3069.8800000000006 75.14999999999999 3069.8600000000006C75.02999999999999 3069.3300000000004 75.08 3069.4500000000007 77.44 3067.9300000000007L77.44 3067.9300000000007C77.49 3067.9000000000005 77.55 3067.8600000000006 77.61 3067.8200000000006C77.61 3067.8200000000006 77.62 3067.8200000000006 77.62 3067.8100000000004C77.79 3067.7100000000005 77.97 3067.5900000000006 78.15 3067.4700000000003C80.19000000000001 3066.1200000000003 81.30000000000001 3065.09 79.91000000000001 3063.6000000000004C79.77000000000001 3063.4700000000003 79.64000000000001 3063.3300000000004 79.51 3063.1900000000005C79.43 3063.0700000000006 78.21000000000001 3061.8800000000006 75.24000000000001 3058.8600000000006L74.47000000000001 3058.1100000000006C74.34000000000002 3057.9800000000005 74.20000000000002 3057.8500000000004 74.07000000000001 3057.7200000000007C72.41000000000001 3056.1600000000008 70.88000000000001 3057.2800000000007 69.30000000000001 3059.750000000001C67.72000000000001 3062.2000000000007 67.21000000000001 3063.6800000000007 67.20000000000002 3063.7000000000007C66.49000000000002 3065.9400000000005 67.83000000000001 3068.6900000000005 68.40000000000002 3069.6300000000006C70.35000000000002 3072.9200000000005 71.11000000000001 3074.3000000000006 75.44000000000003 3078.5600000000004C79.70000000000003 3082.8900000000003 81.08000000000003 3083.6500000000005 84.37000000000003 3085.6000000000004C85.31000000000003 3086.1700000000005 88.06000000000003 3087.51 90.30000000000004 3086.8C90.32000000000004 3086.79 91.80000000000004 3086.28 94.25000000000004 3084.7000000000003C96.72000000000004 3083.1200000000003 97.84000000000005 3081.59 96.28000000000004 3079.9300000000003Z " fill="#525b6a" fill-opacity="1" transform="matrix(1,0,0,1,-66,-3057)"></path></svg>