<?xml version="1.0" encoding="utf-8"?>
<!-- Generator: Avocode 2.6.0 - http://avocode.com -->
<svg height="18" width="30" xmlns:xlink="http://www.w3.org/1999/xlink" xmlns="http://www.w3.org/2000/svg" viewBox="0 0 30 18">
    <path fill="#ffffff" fill-rule="evenodd" d="M 16 18 C 17 18 17 16.56 17 16 C 17 15 18 14 19 14 C 20 14 21.71 15.72 23 17 C 24 18 24 18 25 18 L 28 18 C 28 18 30 17.92 30 16 C 30 15.38 29.31 14.31 27 12 C 25 10 23.97 11.03 27 7 C 28.84 4.54 30.18 2.32 29.95 1.68 C 29.73 1.06 24.61 0.09 24 1 C 22 4 21.63 4.73 21 6 C 20 8 19.9 9 19 9 C 18.09 9 18 7.06 18 6 C 18 2.69 18.48 0.36 17 0 L 14 0 C 12.39 0 11 1 11 1 C 11 1 9.76 1.97 10 2 C 10.3 2.04 12 1.59 12 3 L 12 5 C 12 5 12.01 9 11 9 C 10 9 8 5 6 2 C 5.21 0.82 5 1 4 1 C 2.93 1 2 1.04 1 1.04 C 0 1.04 -0.13 1.68 0 2 C 2 7 3.44 10.14 7.24 14.1 C 10.72 17.73 13.05 17.92 15 18 C 15.5 18.02 15 18 16 18 L 16 18 Z M 16 18" />
</svg>