<?xml version="1.0" encoding="utf-8"?>
<!-- Generator: Avocode 2.6.0 - http://avocode.com -->
<svg height="25" width="22" xmlns:xlink="http://www.w3.org/1999/xlink" xmlns="http://www.w3.org/2000/svg" viewBox="0 0 22 25">
    <path fill="#ffffff" fill-rule="evenodd" d="M 10.9 0 C 13.16 0 15.19 0.92 16.68 2.4 L 16.68 2.4 L 16.68 2.4 C 18.16 3.89 19.08 5.92 19.08 8.18 C 19.08 10.44 18.16 12.5 16.68 13.96 C 16.42 14.22 16.1 14.47 15.82 14.7 C 17.19 15.07 18.45 15.82 19.42 16.79 L 19.42 16.79 L 19.42 16.79 C 20.88 18.25 21.8 20.28 21.8 22.48 L 21.8 24.03 C 21.8 24.57 21.37 25 20.82 25 L 20.8 25 L 0.97 25 C 0.43 25 0 24.57 0 24.03 L 0 24 L 0 22.51 C 0 20.28 0.92 18.28 2.37 16.82 C 3.35 15.85 4.61 15.1 5.98 14.73 C 5.66 14.5 5.38 14.24 5.12 13.99 L 5.12 13.99 C 3.63 12.5 2.72 10.47 2.72 8.21 C 2.72 5.95 3.63 3.92 5.12 2.43 C 6.58 0.92 8.64 0 10.9 0 L 10.9 0 L 10.9 0 Z M 15.33 3.75 C 14.19 2.6 12.61 1.92 10.9 1.92 C 9.18 1.92 7.61 2.6 6.46 3.75 C 5.32 4.89 4.63 6.44 4.63 8.18 C 4.63 9.9 5.35 11.47 6.46 12.61 L 6.46 12.61 L 6.46 12.61 C 7.58 13.73 9.15 14.45 10.9 14.45 C 12.61 14.45 14.19 13.73 15.33 12.61 C 16.48 11.47 17.16 9.93 17.16 8.18 C 17.16 6.44 16.45 4.89 15.33 3.75 L 15.33 3.75 L 15.33 3.75 L 15.33 3.75 Z M 13.73 16.36 L 10.9 16.36 L 8.07 16.36 C 6.38 16.36 4.83 17.05 3.72 18.16 C 2.6 19.28 1.92 20.82 1.92 22.51 L 1.92 23.08 L 19.85 23.08 L 19.85 22.51 C 19.85 20.82 19.16 19.28 18.05 18.16 L 18.05 18.16 C 16.96 17.05 15.42 16.36 13.73 16.36 L 13.73 16.36 Z M 13.73 16.36" />
</svg>