<svg  xmlns="http://www.w3.org/2000/svg" version="1.1" xmlns:xlink="http://www.w3.org/1999/xlink"  width="680" height="85" viewBox="150 0 680 85">
	<path  d="M580.86 565.84C524.16 565.84 497.82 582.13 445.88 582.13C393.94 582.13 376.9 544.86 335.69 544.86C290.40999999999997 544.86 272.21 490 229.01999999999998 490C185.82 490 178.42 538.36 121.04999999999998 538.36C63.679999999999986 538.36 51.34999999999998 507.67 12.179999999999978 507.67C-26.990000000000023 507.67 -50.60000000000002 531.38 -96.49000000000002 531.38C-142.38000000000002 531.38 -162.59000000000003 493.72 -203.78000000000003 493.72C-244.97000000000003 493.72 -275.5 526.6800000000001 -337.6 529.03C-399.70000000000005 531.38 -376.92 819.8599999999999 -376.92 819.8599999999999L580.8599999999999 844.9999999999999L601.9999999999999 562.8199999999999 " fill="#95dbfc" fill-opacity="0.5" transform="matrix(1,0,0,1,381,-490)"></path>
</svg>