<svg id="SvgjsSvg1013" xmlns="http://www.w3.org/2000/svg" version="1.1" xmlns:xlink="http://www.w3.org/1999/xlink" xmlns:svgjs="http://svgjs.com/svgjs" width="1200" height="192" viewBox="-100 0 1456 192"><defs id="SvgjsDefs1014"></defs><path id="SvgjsPath1015" d="M-76.7 612.55C7.239999999999995 612.55 46.230000000000004 645.0999999999999 123.13000000000001 645.0999999999999C200.03000000000003 645.0999999999999 225.25 570.6299999999999 286.26 570.6299999999999C353.28999999999996 570.6299999999999 380.24 460.9999999999999 444.17999999999995 460.9999999999999C508.12999999999994 460.9999999999999 519.0799999999999 557.6499999999999 604.02 557.6499999999999C688.96 557.6499999999999 707.21 496.29999999999984 765.2 496.29999999999984C823.19 496.29999999999984 858.1400000000001 543.6899999999998 926.08 543.6899999999998C994.02 543.6899999999998 1023.9300000000001 468.4399999999998 1084.91 468.4399999999998C1145.9 468.4399999999998 1191.1000000000001 534.3099999999998 1283.0300000000002 538.9999999999998C1374.9600000000003 543.6899999999998 1341.2400000000002 1120.1799999999998 1341.2400000000002 1120.1799999999998L-76.69999999999982 1170.4199999999998L-107.99999999999982 606.5199999999999 " fill="#95dbfc" fill-opacity="0.5" transform="matrix(1,0,0,1,108,-461)"></path></svg>