<svg id="SvgjsSvg1016" xmlns="http://www.w3.org/2000/svg" version="1.1" xmlns:xlink="http://www.w3.org/1999/xlink" xmlns:svgjs="http://svgjs.com/svgjs" width="1966" height="109"><defs id="SvgjsDefs1017"></defs><path id="SvgjsPath1018" d="M1852.72 687.55C1739.32 687.55 1686.65 720.0999999999999 1582.76 720.0999999999999C1478.87 720.0999999999999 1444.79 645.6299999999999 1362.37 645.6299999999999C1271.82 645.6299999999999 1235.4199999999998 535.9999999999999 1149.03 535.9999999999999C1062.65 535.9999999999999 1047.84 632.6499999999999 933.0999999999999 632.6499999999999C818.3499999999999 632.6499999999999 793.6999999999999 571.2999999999998 715.3599999999999 571.2999999999998C637.0199999999999 571.2999999999998 589.8 618.6899999999998 498.01999999999987 618.6899999999998C406.22999999999985 618.6899999999998 365.82999999999987 543.4399999999998 283.4399999999998 543.4399999999998C201.04999999999984 543.4399999999998 139.98999999999984 609.3099999999998 15.78999999999985 613.9999999999998C-108.40000000000015 618.6899999999998 -62.840000000000146 1195.1799999999998 -62.840000000000146 1195.1799999999998L1852.7199999999998 1245.4199999999998L1894.9999999999998 681.5199999999999 " fill="#95dbfc" fill-opacity="0.5" transform="matrix(1,0,0,1,71,-536)"></path></svg>