<svg id="SvgjsSvg1010" xmlns="http://www.w3.org/2000/svg" version="1.1" xmlns:xlink="http://www.w3.org/1999/xlink" xmlns:svgjs="http://svgjs.com/svgjs" width="1400" height="184" viewBox="150 0 1400 184"><defs id="SvgjsDefs1011"></defs><path id="SvgjsPath1012" d="M1584.2 619.72C1480.15 619.72 1431.81 655.53 1336.49 655.53C1241.16 655.53 1209.89 573.5999999999999 1134.26 573.5999999999999C1051.17 573.5999999999999 1017.77 452.9999999999999 938.5 452.9999999999999C859.23 452.9999999999999 845.65 559.3199999999999 740.36 559.3199999999999C635.07 559.3199999999999 612.44 491.8399999999999 540.56 491.8399999999999C468.67999999999995 491.8399999999999 425.34999999999997 543.9599999999999 341.12999999999994 543.9599999999999C256.90999999999997 543.9599999999999 219.82999999999993 461.18999999999994 144.22999999999993 461.18999999999994C68.63999999999993 461.18999999999994 12.609999999999928 533.64 -101.36000000000007 538.8C-215.32000000000005 543.9599999999999 -173.51000000000008 1178.1599999999999 -173.51000000000008 1178.1599999999999L1584.2 1233.4199999999998L1623 613.0799999999998 " fill="#95dbfc" fill-opacity="0.5" transform="matrix(1,0,0,1,181,-453)"></path></svg>