<svg id="SvgjsSvg1011" xmlns="http://www.w3.org/2000/svg" version="1.1" xmlns:xlink="http://www.w3.org/1999/xlink" xmlns:svgjs="http://svgjs.com/svgjs" width="680" height="123" viewBox="150 0 680 123"><defs id="SvgjsDefs1012"></defs><path id="SvgjsPath1013" d="M542.6 541.31C490.57000000000005 541.31 466.41 559.2099999999999 418.74 559.2099999999999C371.08000000000004 559.2099999999999 355.45 518.27 317.63 518.27C276.09 518.27 259.38 458 219.75 458C180.12 458 173.32 511.13 120.68 511.13C68.03 511.13 56.720000000000006 477.40999999999997 20.78 477.40999999999997C-15.159999999999997 477.40999999999997 -36.82 503.46 -78.92999999999999 503.46C-121.04999999999998 503.46 -139.57999999999998 462.09 -177.38 462.09C-215.18 462.09 -243.2 498.29999999999995 -300.18 500.88C-357.16 503.46 -336.26 820.38 -336.26 820.38L542.6 848L562 538 " fill="#95dbfc" fill-opacity="0.5" transform="matrix(1,0,0,1,341,-458)"></path></svg>