<svg id="SvgjsSvg1008" xmlns="http://www.w3.org/2000/svg" version="1.1" xmlns:xlink="http://www.w3.org/1999/xlink" xmlns:svgjs="http://svgjs.com/svgjs" width="680" height="123" viewBox="150 0 680 123"><defs id="SvgjsDefs1009"></defs><path id="SvgjsPath1010" d="M-237.34 527.84C-195.35 527.84 -175.85 544.13 -137.38 544.13C-98.91 544.13 -86.28999999999999 506.86 -55.769999999999996 506.86C-22.239999999999995 506.86 -8.759999999999998 452 23.230000000000004 452C55.22 452 60.7 500.36 103.19 500.36C145.68 500.36 154.81 469.67 183.82 469.67C212.82 469.67 230.31 493.38 264.3 493.38C298.28000000000003 493.38 313.25 455.72 343.75 455.72C374.26 455.72 396.87 488.68 442.86 491.03000000000003C488.85 493.38000000000005 471.98 781.86 471.98 781.86L-237.34000000000003 807L-253.00000000000003 524.8199999999999 " fill="#95dbfc" fill-opacity="0.5" transform="matrix(1,0,0,1,253,-452)"></path></svg>